M48
; DRILL file {KiCad 5.1.6-c6e7f7d~86~ubuntu18.04.1} date Tue Jun  2 23:02:36 2020
; FORMAT={-:-/ absolute / inch / decimal}
; #@! TF.CreationDate,2020-06-02T23:02:36+03:00
; #@! TF.GenerationSoftware,Kicad,Pcbnew,5.1.6-c6e7f7d~86~ubuntu18.04.1
FMAT,2
INCH
T1C0.0157
T2C0.0300
T3C0.0315
T4C0.0354
T5C0.0394
T6C0.0440
T7C0.0512
T8C0.0866
%
G90
G05
T1
X2.05Y-1.6
X2.05Y-3.25
X2.1Y-5.8
X2.15Y-3.25
X2.25Y-1.6
X2.45Y-3.9
X2.5Y-4.15
X2.5Y-5.4
X2.6Y-1.65
X2.65Y-1.3
X2.65Y-2.2
X2.7Y-3.9
X2.7Y-4.15
X2.7Y-5.4
X2.8Y-6.0
X2.9Y-6.0
X3.0Y-3.0
X3.0Y-5.2
X3.1Y-5.3
X3.15Y-2.7
X3.15Y-3.5
X3.4Y-2.95
X3.5Y-3.4
X3.6Y-1.4
X3.7Y-1.35
X3.7Y-2.15
X3.7Y-2.9
X3.7Y-3.75
X3.7Y-4.55
X3.7Y-5.35
X3.7Y-6.1
X3.7Y-6.55
X3.8Y-6.45
X3.95Y-3.0
X3.95Y-4.5
X4.2Y-5.75
X4.2Y-6.4
X4.25Y-1.3
X4.3874Y-1.5374
X4.5Y-1.35
X4.5Y-2.15
X4.5Y-2.9
X4.5Y-3.75
X4.5Y-4.55
X4.5Y-5.35
X4.5Y-6.1
X4.5Y-6.55
X4.5874Y-6.3874
X4.65Y-3.15
X4.7Y-3.8
X4.7Y-6.2
X4.7374Y-3.4374
X4.75Y-2.25
X4.75Y-4.45
X4.8Y-3.15
X4.8Y-5.8
X4.8Y-6.25
X4.85Y-1.85
X4.85Y-6.25
X4.95Y-1.75
X4.95Y-2.4
X4.95Y-3.35
X4.95Y-5.45
X4.95Y-6.15
X5.05Y-1.3
X5.1748Y-2.9748
X5.25Y-3.75
X5.25Y-5.35
X5.25Y-6.1
X5.25Y-6.5
X5.3Y-1.35
X5.3Y-2.15
X5.3Y-2.65
X5.3Y-2.9
X5.3Y-4.55
X5.3Y-6.55
X5.3748Y-6.3248
X5.45Y-2.25
X5.45Y-3.85
X5.45Y-6.05
X5.5042Y-1.6542
X5.6Y-4.25
X5.6Y-6.5
X5.65Y-1.4
X5.65Y-2.35
X5.65Y-5.75
X5.7Y-1.5
X5.7Y-2.15
X5.7Y-2.65
X5.7Y-3.45
X5.7Y-5.85
X5.75Y-2.1
X5.75Y-3.0
X5.75Y-5.35
X5.85Y-1.3
X5.85Y-6.4
X5.9622Y-2.4122
X6.05Y-1.35
X6.05Y-2.65
X6.05Y-2.9
X6.05Y-3.75
X6.05Y-4.55
X6.05Y-5.35
X6.05Y-6.15
X6.05Y-6.45
X6.05Y-6.55
X6.1Y-2.15
X6.1622Y-5.8378
X6.2104Y-4.2104
X6.3122Y-3.0622
X6.4Y-4.1
X6.4Y-4.6
X6.45Y-3.9
X6.45Y-4.75
X6.6Y-1.3
X6.7496Y-1.8004
X6.85Y-1.35
X6.85Y-2.15
X6.85Y-2.9
X6.85Y-3.75
X6.85Y-3.9
X6.85Y-4.55
X6.85Y-4.85
X6.85Y-5.35
X6.85Y-6.15
X6.85Y-6.55
X6.9496Y-5.7504
X7.1Y-3.4
X7.1Y-4.2
X7.25Y-3.35
X7.25Y-3.9
X7.4Y-1.3
X7.537Y-1.687
X7.637Y-3.763
X7.65Y-1.35
X7.65Y-2.15
X7.65Y-2.9
X7.65Y-4.15
X7.65Y-4.55
X7.65Y-5.35
X7.65Y-6.15
X7.65Y-6.55
X7.737Y-5.663
X7.8Y-2.7
X7.95Y-4.25
X8.05Y-2.9
X8.05Y-3.1
X8.05Y-4.3
X8.1Y-2.45
X8.1Y-3.05
X8.1Y-4.05
X8.1Y-6.25
X8.2Y-1.3
X8.2Y-3.1
X8.25Y-4.3
X8.3244Y-1.5744
X8.4Y-1.35
X8.4Y-2.15
X8.4Y-2.9
X8.4Y-4.15
X8.4Y-4.55
X8.4Y-5.35
X8.4Y-6.15
X8.4Y-6.55
X8.5244Y-5.5244
X8.6Y-4.4
X8.65Y-4.15
X8.75Y-2.15
X8.75Y-3.45
X8.75Y-4.4
X8.75Y-5.35
X8.8Y-2.9
X8.8Y-3.5
X8.8Y-4.9
X8.85Y-1.35
X8.85Y-3.35
X8.85Y-3.65
X8.85Y-4.3
X8.85Y-6.15
X8.9Y-4.9
X8.95Y-1.3
X8.95Y-4.2
X8.95Y-6.55
X9.05Y-4.15
X9.1118Y-1.4882
X9.2Y-1.35
X9.2Y-2.15
X9.2Y-2.9
X9.2Y-4.15
X9.2Y-4.55
X9.2Y-5.35
X9.2Y-6.15
X9.2Y-6.55
X9.2118Y-3.7118
X9.25Y-3.85
X9.3118Y-5.4382
X9.45Y-4.5
X9.75Y-1.3
T2
X8.8Y-3.75
X8.8Y-4.35
X5.2748Y-4.7496
X5.8748Y-4.7496
X7.637Y-2.3874
X8.237Y-2.3874
X5.2748Y-3.1748
X5.8748Y-3.1748
X9.2118Y-5.537
X9.8118Y-5.537
X6.8496Y-5.537
X7.4496Y-5.537
X6.0622Y-1.6
X6.6622Y-1.6
X6.8496Y-3.9622
X7.4496Y-3.9622
X9.2118Y-7.1118
X9.8118Y-7.1118
X9.2118Y-3.1748
X9.8118Y-3.1748
X6.0622Y-5.537
X6.6622Y-5.537
X8.05Y-3.0
X8.05Y-3.6
X4.4874Y-2.3874
X5.0874Y-2.3874
X6.8496Y-3.1748
X7.4496Y-3.1748
X6.8496Y-4.7496
X7.4496Y-4.7496
X5.2748Y-3.9622
X5.8748Y-3.9622
X6.0622Y-7.1118
X6.6622Y-7.1118
X3.7Y-6.3244
X4.3Y-6.3244
X8.4244Y-1.6
X9.0244Y-1.6
X5.2748Y-1.6
X5.8748Y-1.6
X6.0622Y-2.3874
X6.6622Y-2.3874
X5.75Y-5.15
X5.75Y-5.75
X3.7Y-2.3874
X4.3Y-2.3874
X7.637Y-7.1118
X8.237Y-7.1118
X3.7Y-3.1748
X4.3Y-3.1748
X3.7Y-7.1118
X4.3Y-7.1118
X3.7Y-5.537
X4.3Y-5.537
X8.4244Y-4.7496
X9.0244Y-4.7496
X9.2118Y-4.7496
X9.8118Y-4.7496
X7.637Y-1.6
X8.237Y-1.6
X3.7Y-1.6
X4.3Y-1.6
X4.4874Y-3.9622
X5.0874Y-3.9622
X4.4874Y-3.1748
X5.0874Y-3.1748
X4.4874Y-6.3244
X5.0874Y-6.3244
X4.4874Y-7.1118
X5.0874Y-7.1118
X9.2118Y-2.3874
X9.8118Y-2.3874
X6.45Y-3.7
X6.45Y-4.3
X6.0622Y-3.1748
X6.6622Y-3.1748
X7.637Y-4.7496
X8.237Y-4.7496
X7.637Y-6.3244
X8.237Y-6.3244
X4.4874Y-4.7496
X5.0874Y-4.7496
X6.8496Y-1.6
X7.4496Y-1.6
X8.4244Y-2.3874
X9.0244Y-2.3874
X3.7Y-4.7496
X4.3Y-4.7496
X8.4244Y-7.1118
X9.0244Y-7.1118
X5.2748Y-7.1118
X5.8748Y-7.1118
X6.8496Y-6.3244
X7.4496Y-6.3244
X4.4874Y-5.537
X5.0874Y-5.537
X6.0622Y-6.3244
X6.6622Y-6.3244
X6.8496Y-7.1118
X7.4496Y-7.1118
X9.2118Y-1.6
X9.8118Y-1.6
X6.8496Y-2.3874
X7.4496Y-2.3874
X6.45Y-4.5
X6.45Y-5.1
X8.05Y-3.85
X8.05Y-4.45
X5.7Y-6.1
X5.7Y-6.7
X9.2118Y-6.3244
X9.8118Y-6.3244
X7.637Y-5.537
X8.237Y-5.537
X4.4874Y-1.6
X5.0874Y-1.6
X8.4244Y-6.3244
X9.0244Y-6.3244
X5.7Y-2.25
X5.7Y-2.85
X8.4244Y-5.537
X9.0244Y-5.537
X3.7Y-3.9622
X4.3Y-3.9622
X8.8Y-3.0
X8.8Y-3.6
X9.2118Y-3.9622
X9.8118Y-3.9622
T3
X5.55Y-4.9
X5.85Y-4.9
X7.887Y-2.8
X8.187Y-2.8
X2.95Y-2.45
X2.95Y-2.75
X3.95Y-5.937
X4.25Y-5.937
X7.887Y-6.7244
X8.187Y-6.7244
X5.5Y-6.8
X5.8Y-6.8
X6.3122Y-6.7244
X6.6122Y-6.7244
X3.95Y-1.2
X4.25Y-1.2
X7.0996Y-4.3622
X7.3996Y-4.3622
X5.5248Y-1.45
X5.8248Y-1.45
X7.887Y-5.1496
X8.187Y-5.1496
X6.3122Y-5.937
X6.6122Y-5.937
X7.0996Y-2.0
X7.3996Y-2.0
X9.4618Y-2.0
X9.7618Y-2.0
X9.4618Y-6.7244
X9.7618Y-6.7244
X7.1Y-1.2
X7.4Y-1.2
X3.95Y-3.5748
X4.25Y-3.5748
X3.0Y-3.5
X3.0Y-3.8
X4.75Y-1.2
X5.05Y-1.2
X4.7374Y-6.7244
X5.0374Y-6.7244
X7.937Y-6.9618
X8.237Y-6.9618
X8.6Y-4.6
X8.9Y-4.6
X7.95Y-4.6
X8.25Y-4.6
X9.45Y-1.2
X9.75Y-1.2
X6.3622Y-6.9618
X6.6622Y-6.9618
X9.5118Y-6.9618
X9.8118Y-6.9618
X7.887Y-2.0
X8.187Y-2.0
X5.55Y-2.55
X5.55Y-2.85
X9.4618Y-5.937
X9.7618Y-5.937
X7.1496Y-6.9618
X7.4496Y-6.9618
X4.7374Y-2.7874
X5.0374Y-2.7874
X7.0996Y-2.7874
X7.3996Y-2.7874
X4.7874Y-6.9618
X5.0874Y-6.9618
X4.7374Y-3.5748
X5.0374Y-3.5748
X2.5Y-1.35
X2.5Y-1.65
X6.3122Y-3.5748
X6.6122Y-3.5748
X3.95Y-4.3622
X4.25Y-4.3622
X7.887Y-5.937
X8.187Y-5.937
X4.7374Y-4.3622
X5.0374Y-4.3622
X6.3Y-1.2
X6.6Y-1.2
X8.65Y-1.2
X8.95Y-1.2
X8.65Y-2.65
X8.95Y-2.65
X7.9Y-1.2
X8.2Y-1.2
X7.0996Y-6.7244
X7.3996Y-6.7244
X3.4Y-1.55
X3.4Y-1.85
X7.0996Y-5.937
X7.3996Y-5.937
X4.0Y-6.9618
X4.3Y-6.9618
X8.6744Y-2.0
X8.9744Y-2.0
X9.4618Y-2.7874
X9.7618Y-2.7874
X5.5748Y-6.9618
X5.8748Y-6.9618
X5.5248Y-3.5748
X5.8248Y-3.5748
X6.6Y-4.85
X6.6Y-5.15
X8.6744Y-6.7244
X8.9744Y-6.7244
X7.0996Y-5.1496
X7.3996Y-5.1496
X3.4Y-3.05
X3.4Y-3.35
X8.7Y-5.937
X9.0Y-5.937
X9.4618Y-5.1496
X9.7618Y-5.1496
X8.65Y-2.8
X8.95Y-2.8
X4.7374Y-2.0
X5.0374Y-2.0
X3.95Y-6.7244
X4.25Y-6.7244
X7.887Y-2.65
X8.187Y-2.65
X4.7374Y-5.1496
X5.0374Y-5.1496
X6.3122Y-2.0
X6.6122Y-2.0
X8.7244Y-6.9618
X9.0244Y-6.9618
X9.4618Y-4.3622
X9.7618Y-4.3622
X8.7Y-5.15
X9.0Y-5.15
X5.5248Y-4.3622
X5.8248Y-4.3622
X2.5Y-3.0
X2.5Y-3.3
X9.4618Y-3.5748
X9.7618Y-3.5748
X7.0996Y-3.5748
X7.3996Y-3.5748
X3.95Y-5.1496
X4.25Y-5.1496
X5.55Y-5.05
X5.85Y-5.05
X6.3Y-4.85
X6.3Y-5.15
X4.7374Y-5.937
X5.0374Y-5.937
X6.3122Y-2.7874
X6.6122Y-2.7874
X5.55Y-1.2
X5.85Y-1.2
X3.95Y-2.0
X4.25Y-2.0
X3.95Y-2.7874
X4.25Y-2.7874
T4
X9.1118Y-4.3496
X9.2118Y-4.3496
X9.3118Y-4.3496
X7.537Y-1.9874
X7.637Y-1.9874
X7.737Y-1.9874
X6.7496Y-1.2
X6.8496Y-1.2
X6.9496Y-1.2
X5.1748Y-6.7118
X5.2748Y-6.7118
X5.3748Y-6.7118
X5.9622Y-6.7118
X6.0622Y-6.7118
X6.1622Y-6.7118
X5.1748Y-5.9244
X5.2748Y-5.9244
X5.3748Y-5.9244
X5.9622Y-1.2
X6.0622Y-1.2
X6.1622Y-1.2
X8.3244Y-2.7748
X8.4244Y-2.7748
X8.5244Y-2.7748
X5.9622Y-5.9244
X6.0622Y-5.9244
X6.1622Y-5.9244
X3.6Y-5.137
X3.7Y-5.137
X3.8Y-5.137
X5.1748Y-1.2
X5.2748Y-1.2
X5.3748Y-1.2
X3.6Y-4.3496
X3.7Y-4.3496
X3.8Y-4.3496
X3.6Y-3.5622
X3.7Y-3.5622
X3.8Y-3.5622
X5.1748Y-5.137
X5.2748Y-5.137
X5.3748Y-5.137
X3.6Y-2.7748
X3.7Y-2.7748
X3.8Y-2.7748
X8.3244Y-1.9874
X8.4244Y-1.9874
X8.5244Y-1.9874
X7.537Y-1.2
X7.637Y-1.2
X7.737Y-1.2
X5.1748Y-4.3496
X5.2748Y-4.3496
X5.3748Y-4.3496
X4.3874Y-6.7118
X4.4874Y-6.7118
X4.5874Y-6.7118
X5.1748Y-3.5622
X5.2748Y-3.5622
X5.3748Y-3.5622
X9.1118Y-3.5622
X9.2118Y-3.5622
X9.3118Y-3.5622
X5.9622Y-5.137
X6.0622Y-5.137
X6.1622Y-5.137
X8.3244Y-1.2
X8.4244Y-1.2
X8.5244Y-1.2
X5.9622Y-4.3496
X6.0622Y-4.3496
X6.1622Y-4.3496
X6.7496Y-6.7118
X6.8496Y-6.7118
X6.9496Y-6.7118
X4.3874Y-5.9244
X4.4874Y-5.9244
X4.5874Y-5.9244
X7.537Y-6.7118
X7.637Y-6.7118
X7.737Y-6.7118
X5.9622Y-3.5622
X6.0622Y-3.5622
X6.1622Y-3.5622
X5.1748Y-1.9874
X5.2748Y-1.9874
X5.3748Y-1.9874
X9.1118Y-5.9244
X9.2118Y-5.9244
X9.3118Y-5.9244
X7.537Y-5.9244
X7.637Y-5.9244
X7.737Y-5.9244
X5.9622Y-1.9874
X6.0622Y-1.9874
X6.1622Y-1.9874
X3.6Y-1.9874
X3.7Y-1.9874
X3.8Y-1.9874
X3.6Y-1.2
X3.7Y-1.2
X3.8Y-1.2
X5.1748Y-2.7748
X5.2748Y-2.7748
X5.3748Y-2.7748
X6.7496Y-5.9244
X6.8496Y-5.9244
X6.9496Y-5.9244
X9.1118Y-2.7748
X9.2118Y-2.7748
X9.3118Y-2.7748
X6.7496Y-5.137
X6.8496Y-5.137
X6.9496Y-5.137
X7.537Y-5.137
X7.637Y-5.137
X7.737Y-5.137
X6.7496Y-4.3496
X6.8496Y-4.3496
X6.9496Y-4.3496
X9.1118Y-6.7118
X9.2118Y-6.7118
X9.3118Y-6.7118
X4.3874Y-5.137
X4.4874Y-5.137
X4.5874Y-5.137
X4.3874Y-4.3496
X4.4874Y-4.3496
X4.5874Y-4.3496
X9.1118Y-1.9874
X9.2118Y-1.9874
X9.3118Y-1.9874
X4.3874Y-3.5622
X4.4874Y-3.5622
X4.5874Y-3.5622
X9.1118Y-5.137
X9.2118Y-5.137
X9.3118Y-5.137
X9.1118Y-1.2
X9.2118Y-1.2
X9.3118Y-1.2
X4.3874Y-2.7748
X4.4874Y-2.7748
X4.5874Y-2.7748
X4.3874Y-1.9874
X4.4874Y-1.9874
X4.5874Y-1.9874
X8.3244Y-5.137
X8.4244Y-5.137
X8.5244Y-5.137
X4.3874Y-1.2
X4.4874Y-1.2
X4.5874Y-1.2
X7.537Y-4.3496
X7.637Y-4.3496
X7.737Y-4.3496
X6.7496Y-3.5622
X6.8496Y-3.5622
X6.9496Y-3.5622
X7.537Y-3.5622
X7.637Y-3.5622
X7.737Y-3.5622
X8.3244Y-6.7118
X8.4244Y-6.7118
X8.5244Y-6.7118
X6.7496Y-2.7748
X6.8496Y-2.7748
X6.9496Y-2.7748
X7.537Y-2.7748
X7.637Y-2.7748
X7.737Y-2.7748
X8.3244Y-5.9244
X8.4244Y-5.9244
X8.5244Y-5.9244
X5.9622Y-2.7748
X6.0622Y-2.7748
X6.1622Y-2.7748
X6.7496Y-1.9874
X6.8496Y-1.9874
X6.9496Y-1.9874
X8.3244Y-4.3496
X8.4244Y-4.3496
X8.5244Y-4.3496
X3.6Y-6.7118
X3.7Y-6.7118
X3.8Y-6.7118
X8.3244Y-3.5622
X8.4244Y-3.5622
X8.5244Y-3.5622
X3.6Y-5.9244
X3.7Y-5.9244
X3.8Y-5.9244
T5
X2.8Y-4.85
X2.9Y-4.85
X3.0Y-4.85
X3.1Y-4.85
X3.25Y-4.8
X3.25Y-4.9
X3.25Y-5.0
X3.25Y-5.1
X3.25Y-5.2
X3.25Y-5.3
X3.25Y-5.4
X3.25Y-5.5
X3.25Y-5.6
X3.25Y-5.7
X3.25Y-5.8
X3.25Y-5.9
X3.25Y-6.0
X3.25Y-6.1
X3.25Y-6.2
X3.25Y-6.3
X3.25Y-6.4
X3.25Y-6.5
X3.25Y-6.6
X3.25Y-6.7
X2.3445Y-4.8
X2.3445Y-4.9
X2.3445Y-5.0
X2.3445Y-5.1
X2.3445Y-5.2
X2.3445Y-5.3
X2.3445Y-5.4
X2.3445Y-5.5
X2.3445Y-5.6
X2.3445Y-5.7
X2.3445Y-5.8
X2.3445Y-5.9
X2.3445Y-6.0
X2.3445Y-6.1
X2.3445Y-6.2
X2.3445Y-6.3
T6
X6.3Y-4.0
X6.3Y-4.1
X6.3Y-4.2
X6.3Y-4.3
X6.3Y-4.4
X6.3Y-4.5
X6.3Y-4.6
X6.3Y-4.7
X6.6Y-4.0
X6.6Y-4.1
X6.6Y-4.2
X6.6Y-4.3
X6.6Y-4.4
X6.6Y-4.5
X6.6Y-4.6
X6.6Y-4.7
X7.9Y-3.35
X7.9Y-3.45
X7.9Y-3.55
X7.9Y-3.65
X7.9Y-3.75
X7.9Y-3.85
X7.9Y-3.95
X7.9Y-4.05
X8.2Y-3.35
X8.2Y-3.45
X8.2Y-3.55
X8.2Y-3.65
X8.2Y-3.75
X8.2Y-3.85
X8.2Y-3.95
X8.2Y-4.05
X8.65Y-3.25
X8.65Y-3.35
X8.65Y-3.45
X8.65Y-3.55
X8.65Y-3.65
X8.65Y-3.75
X8.65Y-3.85
X8.65Y-3.95
X8.65Y-4.05
X8.95Y-3.25
X8.95Y-3.35
X8.95Y-3.45
X8.95Y-3.55
X8.95Y-3.65
X8.95Y-3.75
X8.95Y-3.85
X8.95Y-3.95
X8.95Y-4.05
X5.55Y-1.75
X5.55Y-1.85
X5.55Y-1.95
X5.55Y-2.05
X5.55Y-2.15
X5.55Y-2.25
X5.55Y-2.35
X5.55Y-2.45
X5.85Y-1.75
X5.85Y-1.85
X5.85Y-1.95
X5.85Y-2.05
X5.85Y-2.15
X5.85Y-2.25
X5.85Y-2.35
X5.85Y-2.45
X5.55Y-5.55
X5.55Y-5.65
X5.55Y-5.75
X5.55Y-5.85
X5.55Y-5.95
X5.55Y-6.05
X5.55Y-6.15
X5.55Y-6.25
X5.85Y-5.55
X5.85Y-5.65
X5.85Y-5.75
X5.85Y-5.85
X5.85Y-5.95
X5.85Y-6.05
X5.85Y-6.15
X5.85Y-6.25
T7
X2.3Y-3.6
X2.3Y-3.7969
X2.7921Y-3.6
X2.7921Y-3.7969
X1.85Y-3.05
X1.85Y-3.2469
X2.3421Y-3.05
X2.3421Y-3.2469
X1.85Y-1.4
X1.85Y-1.5969
X2.3421Y-1.4
X2.3421Y-1.5969
X2.75Y-3.05
X2.75Y-3.2469
X3.2421Y-3.05
X3.2421Y-3.2469
X2.75Y-1.4
X2.75Y-1.5969
X3.2421Y-1.4
X3.2421Y-1.5969
X2.3Y-2.55
X2.3Y-2.7469
X2.7921Y-2.55
X2.7921Y-2.7469
T8
X3.15Y-7.3
X9.8Y-7.3
X3.15Y-2.05
X1.95Y-7.3
X4.1Y-1.8303
X3.7Y-7.3
X9.8Y-1.45
X1.95Y-2.05
T0
M30
