%TF.GenerationSoftware,KiCad,Pcbnew,5.1.6-c6e7f7d~86~ubuntu18.04.1*%
%TF.CreationDate,2020-06-02T23:01:44+03:00*%
%TF.ProjectId,chessboard_pcb,63686573-7362-46f6-9172-645f7063622e,rev?*%
%TF.SameCoordinates,Original*%
%TF.FileFunction,Soldermask,Bot*%
%TF.FilePolarity,Negative*%
%FSLAX46Y46*%
G04 Gerber Fmt 4.6, Leading zero omitted, Abs format (unit mm)*
G04 Created by KiCad (PCBNEW 5.1.6-c6e7f7d~86~ubuntu18.04.1) date 2020-06-02 23:01:44*
%MOMM*%
%LPD*%
G01*
G04 APERTURE LIST*
%ADD10C,2.300000*%
%ADD11O,3.148000X1.950000*%
%ADD12O,1.700000X1.700000*%
%ADD13R,1.700000X1.700000*%
%ADD14C,1.624000*%
%ADD15C,1.700000*%
%ADD16O,1.800000X1.800000*%
%ADD17R,1.800000X1.800000*%
%ADD18C,1.900000*%
%ADD19R,1.900000X1.900000*%
%ADD20R,1.776400X1.776400*%
%ADD21C,1.776400*%
G04 APERTURE END LIST*
D10*
%TO.C,*%
X80010000Y-52070000D03*
%TD*%
%TO.C,*%
X49530000Y-52070000D03*
%TD*%
%TO.C,*%
X49530000Y-185420000D03*
%TD*%
%TO.C,*%
X80010000Y-185420000D03*
%TD*%
%TO.C,*%
X104140000Y-46490000D03*
%TD*%
%TO.C,*%
X248920000Y-36830000D03*
%TD*%
%TO.C,*%
X248920000Y-185420000D03*
%TD*%
%TO.C,*%
X93980000Y-185420000D03*
%TD*%
D11*
%TO.C,SW70*%
X58420000Y-69770000D03*
X58420000Y-64770000D03*
X70920000Y-69770000D03*
X70920000Y-64770000D03*
%TD*%
%TO.C,SW69*%
X69850000Y-40560000D03*
X69850000Y-35560000D03*
X82350000Y-40560000D03*
X82350000Y-35560000D03*
%TD*%
%TO.C,SW68*%
X69850000Y-82470000D03*
X69850000Y-77470000D03*
X82350000Y-82470000D03*
X82350000Y-77470000D03*
%TD*%
%TO.C,SW67*%
X46990000Y-40560000D03*
X46990000Y-35560000D03*
X59490000Y-40560000D03*
X59490000Y-35560000D03*
%TD*%
%TO.C,SW66*%
X58420000Y-96440000D03*
X58420000Y-91440000D03*
X70920000Y-96440000D03*
X70920000Y-91440000D03*
%TD*%
%TO.C,SW65*%
X46990000Y-82470000D03*
X46990000Y-77470000D03*
X59490000Y-82470000D03*
X59490000Y-77470000D03*
%TD*%
D12*
%TO.C,D134*%
X74930000Y-69850000D03*
D13*
X74930000Y-62230000D03*
%TD*%
D12*
%TO.C,D133*%
X86360000Y-39370000D03*
D13*
X86360000Y-46990000D03*
%TD*%
D12*
%TO.C,D132*%
X86360000Y-85090000D03*
D13*
X86360000Y-77470000D03*
%TD*%
D12*
%TO.C,D131*%
X63500000Y-34290000D03*
D13*
X63500000Y-41910000D03*
%TD*%
D12*
%TO.C,D130*%
X76200000Y-96520000D03*
D13*
X76200000Y-88900000D03*
%TD*%
D12*
%TO.C,D129*%
X63500000Y-83820000D03*
D13*
X63500000Y-76200000D03*
%TD*%
D14*
%TO.C,SW64*%
X249220000Y-180640000D03*
X233980000Y-180640000D03*
%TD*%
%TO.C,SW63*%
X249220000Y-160640000D03*
X233980000Y-160640000D03*
%TD*%
%TO.C,SW62*%
X249220000Y-140640000D03*
X233980000Y-140640000D03*
%TD*%
%TO.C,SW61*%
X249220000Y-120640000D03*
X233980000Y-120640000D03*
%TD*%
%TO.C,SW60*%
X249220000Y-100640000D03*
X233980000Y-100640000D03*
%TD*%
%TO.C,SW59*%
X249220000Y-80640000D03*
X233980000Y-80640000D03*
%TD*%
%TO.C,SW58*%
X249220000Y-60640000D03*
X233980000Y-60640000D03*
%TD*%
%TO.C,SW57*%
X249220000Y-40640000D03*
X233980000Y-40640000D03*
%TD*%
%TO.C,SW56*%
X229220000Y-180640000D03*
X213980000Y-180640000D03*
%TD*%
%TO.C,SW55*%
X229220000Y-160640000D03*
X213980000Y-160640000D03*
%TD*%
%TO.C,SW54*%
X229220000Y-140640000D03*
X213980000Y-140640000D03*
%TD*%
%TO.C,SW53*%
X229220000Y-120640000D03*
X213980000Y-120640000D03*
%TD*%
%TO.C,SW52*%
X223520000Y-110490000D03*
X223520000Y-95250000D03*
%TD*%
%TO.C,SW51*%
X223520000Y-91440000D03*
X223520000Y-76200000D03*
%TD*%
%TO.C,SW50*%
X229220000Y-60640000D03*
X213980000Y-60640000D03*
%TD*%
%TO.C,SW49*%
X229220000Y-40640000D03*
X213980000Y-40640000D03*
%TD*%
%TO.C,SW48*%
X209220000Y-180640000D03*
X193980000Y-180640000D03*
%TD*%
%TO.C,SW47*%
X209220000Y-160640000D03*
X193980000Y-160640000D03*
%TD*%
%TO.C,SW46*%
X209220000Y-140640000D03*
X193980000Y-140640000D03*
%TD*%
%TO.C,SW45*%
X209220000Y-120640000D03*
X193980000Y-120640000D03*
%TD*%
%TO.C,SW44*%
X204470000Y-97790000D03*
X204470000Y-113030000D03*
%TD*%
%TO.C,SW43*%
X204470000Y-91440000D03*
X204470000Y-76200000D03*
%TD*%
%TO.C,SW42*%
X209220000Y-60640000D03*
X193980000Y-60640000D03*
%TD*%
%TO.C,SW41*%
X209220000Y-40640000D03*
X193980000Y-40640000D03*
%TD*%
%TO.C,SW40*%
X189220000Y-180640000D03*
X173980000Y-180640000D03*
%TD*%
%TO.C,SW39*%
X189220000Y-160640000D03*
X173980000Y-160640000D03*
%TD*%
%TO.C,SW38*%
X189220000Y-140640000D03*
X173980000Y-140640000D03*
%TD*%
%TO.C,SW37*%
X189220000Y-120640000D03*
X173980000Y-120640000D03*
%TD*%
%TO.C,SW36*%
X189220000Y-100640000D03*
X173980000Y-100640000D03*
%TD*%
%TO.C,SW35*%
X189220000Y-80640000D03*
X173980000Y-80640000D03*
%TD*%
%TO.C,SW34*%
X189220000Y-60640000D03*
X173980000Y-60640000D03*
%TD*%
%TO.C,SW33*%
X189220000Y-40640000D03*
X173980000Y-40640000D03*
%TD*%
%TO.C,SW32*%
X169220000Y-180640000D03*
X153980000Y-180640000D03*
%TD*%
%TO.C,SW31*%
X169220000Y-160640000D03*
X153980000Y-160640000D03*
%TD*%
%TO.C,SW30*%
X169220000Y-140640000D03*
X153980000Y-140640000D03*
%TD*%
%TO.C,SW29*%
X163830000Y-114300000D03*
X163830000Y-129540000D03*
%TD*%
%TO.C,SW28*%
X163830000Y-109220000D03*
X163830000Y-93980000D03*
%TD*%
%TO.C,SW27*%
X169220000Y-80640000D03*
X153980000Y-80640000D03*
%TD*%
%TO.C,SW26*%
X169220000Y-60640000D03*
X153980000Y-60640000D03*
%TD*%
%TO.C,SW25*%
X169220000Y-40640000D03*
X153980000Y-40640000D03*
%TD*%
%TO.C,SW24*%
X149220000Y-180640000D03*
X133980000Y-180640000D03*
%TD*%
%TO.C,SW23*%
X144780000Y-170180000D03*
X144780000Y-154940000D03*
%TD*%
%TO.C,SW22*%
X146050000Y-130810000D03*
X146050000Y-146050000D03*
%TD*%
%TO.C,SW21*%
X149220000Y-120640000D03*
X133980000Y-120640000D03*
%TD*%
%TO.C,SW20*%
X149220000Y-100640000D03*
X133980000Y-100640000D03*
%TD*%
%TO.C,SW19*%
X149220000Y-80640000D03*
X133980000Y-80640000D03*
%TD*%
%TO.C,SW18*%
X144780000Y-57150000D03*
X144780000Y-72390000D03*
%TD*%
%TO.C,SW17*%
X149220000Y-40640000D03*
X133980000Y-40640000D03*
%TD*%
%TO.C,SW16*%
X129220000Y-180640000D03*
X113980000Y-180640000D03*
%TD*%
%TO.C,SW15*%
X129220000Y-160640000D03*
X113980000Y-160640000D03*
%TD*%
%TO.C,SW14*%
X129220000Y-140640000D03*
X113980000Y-140640000D03*
%TD*%
%TO.C,SW13*%
X129220000Y-120640000D03*
X113980000Y-120640000D03*
%TD*%
%TO.C,SW12*%
X129220000Y-100640000D03*
X113980000Y-100640000D03*
%TD*%
%TO.C,SW11*%
X129220000Y-80640000D03*
X113980000Y-80640000D03*
%TD*%
%TO.C,SW10*%
X129220000Y-60640000D03*
X113980000Y-60640000D03*
%TD*%
%TO.C,SW9*%
X129220000Y-40640000D03*
X113980000Y-40640000D03*
%TD*%
%TO.C,SW8*%
X109220000Y-180640000D03*
X93980000Y-180640000D03*
%TD*%
%TO.C,SW7*%
X109220000Y-160640000D03*
X93980000Y-160640000D03*
%TD*%
%TO.C,SW6*%
X109220000Y-140640000D03*
X93980000Y-140640000D03*
%TD*%
%TO.C,SW5*%
X109220000Y-120640000D03*
X93980000Y-120640000D03*
%TD*%
%TO.C,SW4*%
X109220000Y-100640000D03*
X93980000Y-100640000D03*
%TD*%
%TO.C,SW3*%
X109220000Y-80640000D03*
X93980000Y-80640000D03*
%TD*%
%TO.C,SW2*%
X109220000Y-60640000D03*
X93980000Y-60640000D03*
%TD*%
%TO.C,SW1*%
X109220000Y-40640000D03*
X93980000Y-40640000D03*
%TD*%
D12*
%TO.C,R8*%
X240030000Y-30480000D03*
D15*
X247650000Y-30480000D03*
%TD*%
D12*
%TO.C,R7*%
X219710000Y-30480000D03*
D15*
X227330000Y-30480000D03*
%TD*%
D12*
%TO.C,R6*%
X200660000Y-30480000D03*
D15*
X208280000Y-30480000D03*
%TD*%
D12*
%TO.C,R5*%
X180340000Y-30480000D03*
D15*
X187960000Y-30480000D03*
%TD*%
D12*
%TO.C,R4*%
X160020000Y-30480000D03*
D15*
X167640000Y-30480000D03*
%TD*%
D12*
%TO.C,R3*%
X140970000Y-30480000D03*
D15*
X148590000Y-30480000D03*
%TD*%
D12*
%TO.C,R2*%
X120650000Y-30480000D03*
D15*
X128270000Y-30480000D03*
%TD*%
D12*
%TO.C,R1*%
X100330000Y-30480000D03*
D15*
X107950000Y-30480000D03*
%TD*%
D12*
%TO.C,D128*%
X249220000Y-176830000D03*
D13*
X241600000Y-176830000D03*
%TD*%
D12*
%TO.C,D127*%
X247950000Y-170800000D03*
D13*
X240330000Y-170800000D03*
%TD*%
D12*
%TO.C,D126*%
X247950000Y-150800000D03*
D13*
X240330000Y-150800000D03*
%TD*%
D12*
%TO.C,D125*%
X247950000Y-130800000D03*
D13*
X240330000Y-130800000D03*
%TD*%
D12*
%TO.C,D124*%
X247950000Y-110800000D03*
D13*
X240330000Y-110800000D03*
%TD*%
D12*
%TO.C,D123*%
X247950000Y-90800000D03*
D13*
X240330000Y-90800000D03*
%TD*%
D12*
%TO.C,D122*%
X247950000Y-70800000D03*
D13*
X240330000Y-70800000D03*
%TD*%
D12*
%TO.C,D121*%
X247950000Y-50800000D03*
D13*
X240330000Y-50800000D03*
%TD*%
D12*
%TO.C,D120*%
X229220000Y-176830000D03*
D13*
X221600000Y-176830000D03*
%TD*%
D12*
%TO.C,D119*%
X227950000Y-170800000D03*
D13*
X220330000Y-170800000D03*
%TD*%
D12*
%TO.C,D118*%
X228600000Y-150800000D03*
D13*
X220980000Y-150800000D03*
%TD*%
D12*
%TO.C,D117*%
X228600000Y-130810000D03*
D13*
X220980000Y-130810000D03*
%TD*%
D12*
%TO.C,D116*%
X226060000Y-116840000D03*
D13*
X218440000Y-116840000D03*
%TD*%
D12*
%TO.C,D115*%
X227330000Y-71120000D03*
D13*
X219710000Y-71120000D03*
%TD*%
D12*
%TO.C,D114*%
X227330000Y-67310000D03*
D13*
X219710000Y-67310000D03*
%TD*%
D12*
%TO.C,D113*%
X227950000Y-50800000D03*
D13*
X220330000Y-50800000D03*
%TD*%
D12*
%TO.C,D112*%
X209220000Y-176830000D03*
D13*
X201600000Y-176830000D03*
%TD*%
D12*
%TO.C,D111*%
X207950000Y-170800000D03*
D13*
X200330000Y-170800000D03*
%TD*%
D12*
%TO.C,D110*%
X207950000Y-150800000D03*
D13*
X200330000Y-150800000D03*
%TD*%
D12*
%TO.C,D109*%
X207950000Y-130800000D03*
D13*
X200330000Y-130800000D03*
%TD*%
D12*
%TO.C,D108*%
X209550000Y-116840000D03*
D13*
X201930000Y-116840000D03*
%TD*%
D12*
%TO.C,D107*%
X207950000Y-71120000D03*
D13*
X200330000Y-71120000D03*
%TD*%
D12*
%TO.C,D106*%
X207950000Y-67310000D03*
D13*
X200330000Y-67310000D03*
%TD*%
D12*
%TO.C,D105*%
X207950000Y-50800000D03*
D13*
X200330000Y-50800000D03*
%TD*%
D12*
%TO.C,D104*%
X189220000Y-176830000D03*
D13*
X181600000Y-176830000D03*
%TD*%
D12*
%TO.C,D103*%
X187950000Y-170800000D03*
D13*
X180330000Y-170800000D03*
%TD*%
D12*
%TO.C,D102*%
X187950000Y-150800000D03*
D13*
X180330000Y-150800000D03*
%TD*%
D12*
%TO.C,D101*%
X187950000Y-130800000D03*
D13*
X180330000Y-130800000D03*
%TD*%
D12*
%TO.C,D100*%
X187950000Y-110800000D03*
D13*
X180330000Y-110800000D03*
%TD*%
D12*
%TO.C,D99*%
X187950000Y-90800000D03*
D13*
X180330000Y-90800000D03*
%TD*%
D12*
%TO.C,D98*%
X187950000Y-70800000D03*
D13*
X180330000Y-70800000D03*
%TD*%
D12*
%TO.C,D97*%
X187950000Y-50800000D03*
D13*
X180330000Y-50800000D03*
%TD*%
D12*
%TO.C,D96*%
X169220000Y-176830000D03*
D13*
X161600000Y-176830000D03*
%TD*%
D12*
%TO.C,D95*%
X167950000Y-170800000D03*
D13*
X160330000Y-170800000D03*
%TD*%
D12*
%TO.C,D94*%
X167950000Y-150800000D03*
D13*
X160330000Y-150800000D03*
%TD*%
D12*
%TO.C,D93*%
X160020000Y-123190000D03*
D13*
X160020000Y-130810000D03*
%TD*%
D12*
%TO.C,D92*%
X167640000Y-123190000D03*
D13*
X167640000Y-130810000D03*
%TD*%
D12*
%TO.C,D91*%
X167950000Y-90800000D03*
D13*
X160330000Y-90800000D03*
%TD*%
D12*
%TO.C,D90*%
X167950000Y-70800000D03*
D13*
X160330000Y-70800000D03*
%TD*%
D12*
%TO.C,D89*%
X167950000Y-50800000D03*
D13*
X160330000Y-50800000D03*
%TD*%
D12*
%TO.C,D88*%
X149220000Y-176830000D03*
D13*
X141600000Y-176830000D03*
%TD*%
D12*
%TO.C,D87*%
X147320000Y-172720000D03*
D13*
X139700000Y-172720000D03*
%TD*%
D12*
%TO.C,D86*%
X148590000Y-128270000D03*
D13*
X140970000Y-128270000D03*
%TD*%
D12*
%TO.C,D85*%
X148590000Y-124460000D03*
D13*
X140970000Y-124460000D03*
%TD*%
D12*
%TO.C,D84*%
X147950000Y-110800000D03*
D13*
X140330000Y-110800000D03*
%TD*%
D12*
%TO.C,D83*%
X147950000Y-90800000D03*
D13*
X140330000Y-90800000D03*
%TD*%
D12*
%TO.C,D82*%
X140970000Y-64770000D03*
D13*
X140970000Y-72390000D03*
%TD*%
D12*
%TO.C,D81*%
X147950000Y-36830000D03*
D13*
X140330000Y-36830000D03*
%TD*%
D12*
%TO.C,D80*%
X129220000Y-176830000D03*
D13*
X121600000Y-176830000D03*
%TD*%
D12*
%TO.C,D79*%
X127950000Y-170800000D03*
D13*
X120330000Y-170800000D03*
%TD*%
D12*
%TO.C,D78*%
X127950000Y-150800000D03*
D13*
X120330000Y-150800000D03*
%TD*%
D12*
%TO.C,D77*%
X127950000Y-130800000D03*
D13*
X120330000Y-130800000D03*
%TD*%
D12*
%TO.C,D76*%
X127950000Y-110800000D03*
D13*
X120330000Y-110800000D03*
%TD*%
D12*
%TO.C,D75*%
X127950000Y-90800000D03*
D13*
X120330000Y-90800000D03*
%TD*%
D12*
%TO.C,D74*%
X127950000Y-70800000D03*
D13*
X120330000Y-70800000D03*
%TD*%
D12*
%TO.C,D73*%
X127950000Y-50800000D03*
D13*
X120330000Y-50800000D03*
%TD*%
D12*
%TO.C,D72*%
X109220000Y-176830000D03*
D13*
X101600000Y-176830000D03*
%TD*%
D12*
%TO.C,D71*%
X107950000Y-170800000D03*
D13*
X100330000Y-170800000D03*
%TD*%
D12*
%TO.C,D70*%
X107950000Y-150800000D03*
D13*
X100330000Y-150800000D03*
%TD*%
D12*
%TO.C,D69*%
X107950000Y-130800000D03*
D13*
X100330000Y-130800000D03*
%TD*%
D12*
%TO.C,D68*%
X107950000Y-110800000D03*
D13*
X100330000Y-110800000D03*
%TD*%
D12*
%TO.C,D67*%
X107950000Y-90800000D03*
D13*
X100330000Y-90800000D03*
%TD*%
D12*
%TO.C,D66*%
X107950000Y-70800000D03*
D13*
X100330000Y-70800000D03*
%TD*%
D12*
%TO.C,D65*%
X107950000Y-50800000D03*
D13*
X100330000Y-50800000D03*
%TD*%
D16*
%TO.C,J3*%
X78740000Y-123190000D03*
X76200000Y-123190000D03*
X73660000Y-123190000D03*
D17*
X71120000Y-123190000D03*
%TD*%
D16*
%TO.C,J2*%
X59550000Y-121920000D03*
X59550000Y-124460000D03*
X59550000Y-127000000D03*
X59550000Y-129540000D03*
X59550000Y-132080000D03*
X59550000Y-134620000D03*
X59550000Y-137160000D03*
X59550000Y-139700000D03*
X59550000Y-142240000D03*
X59550000Y-144780000D03*
X59550000Y-147320000D03*
X59550000Y-149860000D03*
X59550000Y-152400000D03*
X59550000Y-154940000D03*
X59550000Y-157480000D03*
D17*
X59550000Y-160020000D03*
%TD*%
D16*
%TO.C,J1*%
X82550000Y-121920000D03*
X82550000Y-124460000D03*
X82550000Y-127000000D03*
X82550000Y-129540000D03*
X82550000Y-132080000D03*
X82550000Y-134620000D03*
X82550000Y-137160000D03*
X82550000Y-139700000D03*
X82550000Y-142240000D03*
X82550000Y-144780000D03*
X82550000Y-147320000D03*
X82550000Y-149860000D03*
X82550000Y-152400000D03*
X82550000Y-154940000D03*
X82550000Y-157480000D03*
X82550000Y-160020000D03*
X82550000Y-162560000D03*
X82550000Y-165100000D03*
X82550000Y-167640000D03*
D17*
X82550000Y-170180000D03*
%TD*%
D18*
%TO.C,D19*%
X136520000Y-70480000D03*
X133980000Y-70480000D03*
D19*
X131440000Y-70480000D03*
%TD*%
D18*
%TO.C,D27*%
X156520000Y-70480000D03*
X153980000Y-70480000D03*
D19*
X151440000Y-70480000D03*
%TD*%
D20*
%TO.C,U5*%
X148590000Y-140970000D03*
D21*
X148590000Y-143510000D03*
X148590000Y-146050000D03*
X148590000Y-148590000D03*
X148590000Y-151130000D03*
X148590000Y-153670000D03*
X148590000Y-156210000D03*
X148590000Y-158750000D03*
X140970000Y-158750000D03*
X140970000Y-156210000D03*
X140970000Y-153670000D03*
X140970000Y-151130000D03*
X140970000Y-148590000D03*
X140970000Y-146050000D03*
X140970000Y-143510000D03*
X140970000Y-140970000D03*
%TD*%
D20*
%TO.C,U4*%
X148590000Y-44450000D03*
D21*
X148590000Y-46990000D03*
X148590000Y-49530000D03*
X148590000Y-52070000D03*
X148590000Y-54610000D03*
X148590000Y-57150000D03*
X148590000Y-59690000D03*
X148590000Y-62230000D03*
X140970000Y-62230000D03*
X140970000Y-59690000D03*
X140970000Y-57150000D03*
X140970000Y-54610000D03*
X140970000Y-52070000D03*
X140970000Y-49530000D03*
X140970000Y-46990000D03*
X140970000Y-44450000D03*
%TD*%
D20*
%TO.C,U3*%
X219710000Y-102870000D03*
D21*
X219710000Y-100330000D03*
X219710000Y-97790000D03*
X219710000Y-95250000D03*
X219710000Y-92710000D03*
X219710000Y-90170000D03*
X219710000Y-87630000D03*
X219710000Y-85090000D03*
X219710000Y-82550000D03*
X227330000Y-82550000D03*
X227330000Y-85090000D03*
X227330000Y-87630000D03*
X227330000Y-90170000D03*
X227330000Y-92710000D03*
X227330000Y-95250000D03*
X227330000Y-97790000D03*
X227330000Y-100330000D03*
X227330000Y-102870000D03*
%TD*%
D20*
%TO.C,U2*%
X167640000Y-101600000D03*
D21*
X167640000Y-104140000D03*
X167640000Y-106680000D03*
X167640000Y-109220000D03*
X167640000Y-111760000D03*
X167640000Y-114300000D03*
X167640000Y-116840000D03*
X167640000Y-119380000D03*
X160020000Y-119380000D03*
X160020000Y-116840000D03*
X160020000Y-114300000D03*
X160020000Y-111760000D03*
X160020000Y-109220000D03*
X160020000Y-106680000D03*
X160020000Y-104140000D03*
X160020000Y-101600000D03*
%TD*%
D20*
%TO.C,U1*%
X208280000Y-85090000D03*
D21*
X208280000Y-87630000D03*
X208280000Y-90170000D03*
X208280000Y-92710000D03*
X208280000Y-95250000D03*
X208280000Y-97790000D03*
X208280000Y-100330000D03*
X208280000Y-102870000D03*
X200660000Y-102870000D03*
X200660000Y-100330000D03*
X200660000Y-97790000D03*
X200660000Y-95250000D03*
X200660000Y-92710000D03*
X200660000Y-90170000D03*
X200660000Y-87630000D03*
X200660000Y-85090000D03*
%TD*%
D18*
%TO.C,D64*%
X236520000Y-170480000D03*
X233980000Y-170480000D03*
D19*
X231440000Y-170480000D03*
%TD*%
D18*
%TO.C,D63*%
X236520000Y-150480000D03*
X233980000Y-150480000D03*
D19*
X231440000Y-150480000D03*
%TD*%
D18*
%TO.C,D62*%
X236520000Y-130480000D03*
X233980000Y-130480000D03*
D19*
X231440000Y-130480000D03*
%TD*%
D18*
%TO.C,D61*%
X236520000Y-110480000D03*
X233980000Y-110480000D03*
D19*
X231440000Y-110480000D03*
%TD*%
D18*
%TO.C,D60*%
X236520000Y-90480000D03*
X233980000Y-90480000D03*
D19*
X231440000Y-90480000D03*
%TD*%
D18*
%TO.C,D59*%
X236520000Y-70480000D03*
X233980000Y-70480000D03*
D19*
X231440000Y-70480000D03*
%TD*%
D18*
%TO.C,D58*%
X236520000Y-50480000D03*
X233980000Y-50480000D03*
D19*
X231440000Y-50480000D03*
%TD*%
D18*
%TO.C,D57*%
X236520000Y-30480000D03*
X233980000Y-30480000D03*
D19*
X231440000Y-30480000D03*
%TD*%
D18*
%TO.C,D56*%
X216520000Y-170480000D03*
X213980000Y-170480000D03*
D19*
X211440000Y-170480000D03*
%TD*%
D18*
%TO.C,D55*%
X216520000Y-150480000D03*
X213980000Y-150480000D03*
D19*
X211440000Y-150480000D03*
%TD*%
D18*
%TO.C,D54*%
X216520000Y-130480000D03*
X213980000Y-130480000D03*
D19*
X211440000Y-130480000D03*
%TD*%
D18*
%TO.C,D53*%
X216520000Y-110480000D03*
X213980000Y-110480000D03*
D19*
X211440000Y-110480000D03*
%TD*%
D18*
%TO.C,D52*%
X216520000Y-90480000D03*
X213980000Y-90480000D03*
D19*
X211440000Y-90480000D03*
%TD*%
D18*
%TO.C,D51*%
X216520000Y-70480000D03*
X213980000Y-70480000D03*
D19*
X211440000Y-70480000D03*
%TD*%
D18*
%TO.C,D50*%
X216520000Y-50480000D03*
X213980000Y-50480000D03*
D19*
X211440000Y-50480000D03*
%TD*%
D18*
%TO.C,D49*%
X216520000Y-30480000D03*
X213980000Y-30480000D03*
D19*
X211440000Y-30480000D03*
%TD*%
D18*
%TO.C,D48*%
X196520000Y-170480000D03*
X193980000Y-170480000D03*
D19*
X191440000Y-170480000D03*
%TD*%
D18*
%TO.C,D47*%
X196520000Y-150480000D03*
X193980000Y-150480000D03*
D19*
X191440000Y-150480000D03*
%TD*%
D18*
%TO.C,D46*%
X196520000Y-130480000D03*
X193980000Y-130480000D03*
D19*
X191440000Y-130480000D03*
%TD*%
D18*
%TO.C,D45*%
X196520000Y-110480000D03*
X193980000Y-110480000D03*
D19*
X191440000Y-110480000D03*
%TD*%
D18*
%TO.C,D44*%
X196520000Y-90480000D03*
X193980000Y-90480000D03*
D19*
X191440000Y-90480000D03*
%TD*%
D18*
%TO.C,D43*%
X196520000Y-70480000D03*
X193980000Y-70480000D03*
D19*
X191440000Y-70480000D03*
%TD*%
D18*
%TO.C,D42*%
X196520000Y-50480000D03*
X193980000Y-50480000D03*
D19*
X191440000Y-50480000D03*
%TD*%
D18*
%TO.C,D41*%
X196520000Y-30480000D03*
X193980000Y-30480000D03*
D19*
X191440000Y-30480000D03*
%TD*%
D18*
%TO.C,D40*%
X176520000Y-170480000D03*
X173980000Y-170480000D03*
D19*
X171440000Y-170480000D03*
%TD*%
D18*
%TO.C,D39*%
X176520000Y-150480000D03*
X173980000Y-150480000D03*
D19*
X171440000Y-150480000D03*
%TD*%
D18*
%TO.C,D38*%
X176520000Y-130480000D03*
X173980000Y-130480000D03*
D19*
X171440000Y-130480000D03*
%TD*%
D18*
%TO.C,D37*%
X176520000Y-110480000D03*
X173980000Y-110480000D03*
D19*
X171440000Y-110480000D03*
%TD*%
D18*
%TO.C,D36*%
X176520000Y-90480000D03*
X173980000Y-90480000D03*
D19*
X171440000Y-90480000D03*
%TD*%
D18*
%TO.C,D35*%
X176520000Y-70480000D03*
X173980000Y-70480000D03*
D19*
X171440000Y-70480000D03*
%TD*%
D18*
%TO.C,D34*%
X176520000Y-50480000D03*
X173980000Y-50480000D03*
D19*
X171440000Y-50480000D03*
%TD*%
D18*
%TO.C,D33*%
X176520000Y-30480000D03*
X173980000Y-30480000D03*
D19*
X171440000Y-30480000D03*
%TD*%
D18*
%TO.C,D32*%
X156520000Y-170480000D03*
X153980000Y-170480000D03*
D19*
X151440000Y-170480000D03*
%TD*%
D18*
%TO.C,D31*%
X156520000Y-150480000D03*
X153980000Y-150480000D03*
D19*
X151440000Y-150480000D03*
%TD*%
D18*
%TO.C,D30*%
X156520000Y-130480000D03*
X153980000Y-130480000D03*
D19*
X151440000Y-130480000D03*
%TD*%
D18*
%TO.C,D29*%
X156520000Y-110480000D03*
X153980000Y-110480000D03*
D19*
X151440000Y-110480000D03*
%TD*%
D18*
%TO.C,D28*%
X156520000Y-90480000D03*
X153980000Y-90480000D03*
D19*
X151440000Y-90480000D03*
%TD*%
D18*
%TO.C,D26*%
X156520000Y-50480000D03*
X153980000Y-50480000D03*
D19*
X151440000Y-50480000D03*
%TD*%
D18*
%TO.C,D25*%
X156520000Y-30480000D03*
X153980000Y-30480000D03*
D19*
X151440000Y-30480000D03*
%TD*%
D18*
%TO.C,D24*%
X136520000Y-170480000D03*
X133980000Y-170480000D03*
D19*
X131440000Y-170480000D03*
%TD*%
D18*
%TO.C,D23*%
X136520000Y-150480000D03*
X133980000Y-150480000D03*
D19*
X131440000Y-150480000D03*
%TD*%
D18*
%TO.C,D22*%
X136520000Y-130480000D03*
X133980000Y-130480000D03*
D19*
X131440000Y-130480000D03*
%TD*%
D18*
%TO.C,D21*%
X136520000Y-110480000D03*
X133980000Y-110480000D03*
D19*
X131440000Y-110480000D03*
%TD*%
D18*
%TO.C,D20*%
X136520000Y-90480000D03*
X133980000Y-90480000D03*
D19*
X131440000Y-90480000D03*
%TD*%
D18*
%TO.C,D18*%
X136520000Y-50480000D03*
X133980000Y-50480000D03*
D19*
X131440000Y-50480000D03*
%TD*%
D18*
%TO.C,D17*%
X136520000Y-30480000D03*
X133980000Y-30480000D03*
D19*
X131440000Y-30480000D03*
%TD*%
D18*
%TO.C,D16*%
X116520000Y-170480000D03*
X113980000Y-170480000D03*
D19*
X111440000Y-170480000D03*
%TD*%
D18*
%TO.C,D15*%
X116520000Y-150480000D03*
X113980000Y-150480000D03*
D19*
X111440000Y-150480000D03*
%TD*%
D18*
%TO.C,D14*%
X116520000Y-130480000D03*
X113980000Y-130480000D03*
D19*
X111440000Y-130480000D03*
%TD*%
D18*
%TO.C,D13*%
X116520000Y-110480000D03*
X113980000Y-110480000D03*
D19*
X111440000Y-110480000D03*
%TD*%
D18*
%TO.C,D12*%
X116520000Y-90480000D03*
X113980000Y-90480000D03*
D19*
X111440000Y-90480000D03*
%TD*%
D18*
%TO.C,D11*%
X116520000Y-70480000D03*
X113980000Y-70480000D03*
D19*
X111440000Y-70480000D03*
%TD*%
D18*
%TO.C,D10*%
X116520000Y-50480000D03*
X113980000Y-50480000D03*
D19*
X111440000Y-50480000D03*
%TD*%
D18*
%TO.C,D9*%
X116520000Y-30480000D03*
X113980000Y-30480000D03*
D19*
X111440000Y-30480000D03*
%TD*%
D18*
%TO.C,D8*%
X96520000Y-170480000D03*
X93980000Y-170480000D03*
D19*
X91440000Y-170480000D03*
%TD*%
D18*
%TO.C,D7*%
X96520000Y-150480000D03*
X93980000Y-150480000D03*
D19*
X91440000Y-150480000D03*
%TD*%
D18*
%TO.C,D6*%
X96520000Y-130480000D03*
X93980000Y-130480000D03*
D19*
X91440000Y-130480000D03*
%TD*%
D18*
%TO.C,D5*%
X96520000Y-110480000D03*
X93980000Y-110480000D03*
D19*
X91440000Y-110480000D03*
%TD*%
D18*
%TO.C,D4*%
X96520000Y-90480000D03*
X93980000Y-90480000D03*
D19*
X91440000Y-90480000D03*
%TD*%
D18*
%TO.C,D3*%
X96520000Y-70480000D03*
X93980000Y-70480000D03*
D19*
X91440000Y-70480000D03*
%TD*%
D18*
%TO.C,D2*%
X96520000Y-50480000D03*
X93980000Y-50480000D03*
D19*
X91440000Y-50480000D03*
%TD*%
D18*
%TO.C,D1*%
X96520000Y-30480000D03*
X93980000Y-30480000D03*
D19*
X91440000Y-30480000D03*
%TD*%
M02*
