%TF.GenerationSoftware,KiCad,Pcbnew,5.1.6-c6e7f7d~86~ubuntu18.04.1*%
%TF.CreationDate,2020-06-02T23:01:43+03:00*%
%TF.ProjectId,chessboard_pcb,63686573-7362-46f6-9172-645f7063622e,rev?*%
%TF.SameCoordinates,Original*%
%TF.FileFunction,Copper,L1,Top*%
%TF.FilePolarity,Positive*%
%FSLAX46Y46*%
G04 Gerber Fmt 4.6, Leading zero omitted, Abs format (unit mm)*
G04 Created by KiCad (PCBNEW 5.1.6-c6e7f7d~86~ubuntu18.04.1) date 2020-06-02 23:01:43*
%MOMM*%
%LPD*%
G01*
G04 APERTURE LIST*
%TA.AperFunction,ComponentPad*%
%ADD10O,3.048000X1.850000*%
%TD*%
%TA.AperFunction,ComponentPad*%
%ADD11O,1.600000X1.600000*%
%TD*%
%TA.AperFunction,ComponentPad*%
%ADD12R,1.600000X1.600000*%
%TD*%
%TA.AperFunction,ComponentPad*%
%ADD13C,1.524000*%
%TD*%
%TA.AperFunction,ComponentPad*%
%ADD14C,1.600000*%
%TD*%
%TA.AperFunction,ComponentPad*%
%ADD15O,1.700000X1.700000*%
%TD*%
%TA.AperFunction,ComponentPad*%
%ADD16R,1.700000X1.700000*%
%TD*%
%TA.AperFunction,ComponentPad*%
%ADD17C,1.800000*%
%TD*%
%TA.AperFunction,ComponentPad*%
%ADD18R,1.800000X1.800000*%
%TD*%
%TA.AperFunction,ComponentPad*%
%ADD19R,1.676400X1.676400*%
%TD*%
%TA.AperFunction,ComponentPad*%
%ADD20C,1.676400*%
%TD*%
%TA.AperFunction,ViaPad*%
%ADD21C,0.800000*%
%TD*%
%TA.AperFunction,Conductor*%
%ADD22C,0.250000*%
%TD*%
G04 APERTURE END LIST*
D10*
%TO.P,SW70,2*%
%TO.N,Net-(D134-Pad2)*%
X58420000Y-69770000D03*
%TO.P,SW70,1*%
%TO.N,SWRCP*%
X58420000Y-64770000D03*
%TO.P,SW70,2*%
%TO.N,Net-(D134-Pad2)*%
X70920000Y-69770000D03*
%TO.P,SW70,1*%
%TO.N,SWRCP*%
X70920000Y-64770000D03*
%TD*%
%TO.P,SW69,2*%
%TO.N,Net-(D133-Pad2)*%
X69850000Y-40560000D03*
%TO.P,SW69,1*%
%TO.N,SWRCP*%
X69850000Y-35560000D03*
%TO.P,SW69,2*%
%TO.N,Net-(D133-Pad2)*%
X82350000Y-40560000D03*
%TO.P,SW69,1*%
%TO.N,SWRCP*%
X82350000Y-35560000D03*
%TD*%
%TO.P,SW68,2*%
%TO.N,Net-(D132-Pad2)*%
X69850000Y-82470000D03*
%TO.P,SW68,1*%
%TO.N,SWRCP*%
X69850000Y-77470000D03*
%TO.P,SW68,2*%
%TO.N,Net-(D132-Pad2)*%
X82350000Y-82470000D03*
%TO.P,SW68,1*%
%TO.N,SWRCP*%
X82350000Y-77470000D03*
%TD*%
%TO.P,SW67,2*%
%TO.N,Net-(D131-Pad2)*%
X46990000Y-40560000D03*
%TO.P,SW67,1*%
%TO.N,SWRCP*%
X46990000Y-35560000D03*
%TO.P,SW67,2*%
%TO.N,Net-(D131-Pad2)*%
X59490000Y-40560000D03*
%TO.P,SW67,1*%
%TO.N,SWRCP*%
X59490000Y-35560000D03*
%TD*%
%TO.P,SW66,2*%
%TO.N,Net-(D130-Pad2)*%
X58420000Y-96440000D03*
%TO.P,SW66,1*%
%TO.N,SWRCP*%
X58420000Y-91440000D03*
%TO.P,SW66,2*%
%TO.N,Net-(D130-Pad2)*%
X70920000Y-96440000D03*
%TO.P,SW66,1*%
%TO.N,SWRCP*%
X70920000Y-91440000D03*
%TD*%
%TO.P,SW65,2*%
%TO.N,Net-(D129-Pad2)*%
X46990000Y-82470000D03*
%TO.P,SW65,1*%
%TO.N,SWRCP*%
X46990000Y-77470000D03*
%TO.P,SW65,2*%
%TO.N,Net-(D129-Pad2)*%
X59490000Y-82470000D03*
%TO.P,SW65,1*%
%TO.N,SWRCP*%
X59490000Y-77470000D03*
%TD*%
D11*
%TO.P,D134,2*%
%TO.N,Net-(D134-Pad2)*%
X74930000Y-69850000D03*
D12*
%TO.P,D134,1*%
%TO.N,/SwitchMatrix/SwC5*%
X74930000Y-62230000D03*
%TD*%
D11*
%TO.P,D133,2*%
%TO.N,Net-(D133-Pad2)*%
X86360000Y-39370000D03*
D12*
%TO.P,D133,1*%
%TO.N,/SwitchMatrix/SwC4*%
X86360000Y-46990000D03*
%TD*%
D11*
%TO.P,D132,2*%
%TO.N,Net-(D132-Pad2)*%
X86360000Y-85090000D03*
D12*
%TO.P,D132,1*%
%TO.N,/SwitchMatrix/SwC3*%
X86360000Y-77470000D03*
%TD*%
D11*
%TO.P,D131,2*%
%TO.N,Net-(D131-Pad2)*%
X63500000Y-34290000D03*
D12*
%TO.P,D131,1*%
%TO.N,/SwitchMatrix/SwC2*%
X63500000Y-41910000D03*
%TD*%
D11*
%TO.P,D130,2*%
%TO.N,Net-(D130-Pad2)*%
X76200000Y-96520000D03*
D12*
%TO.P,D130,1*%
%TO.N,/SwitchMatrix/SwC1*%
X76200000Y-88900000D03*
%TD*%
D11*
%TO.P,D129,2*%
%TO.N,Net-(D129-Pad2)*%
X63500000Y-83820000D03*
D12*
%TO.P,D129,1*%
%TO.N,/SwitchMatrix/SwC0*%
X63500000Y-76200000D03*
%TD*%
D13*
%TO.P,SW64,2*%
%TO.N,Net-(D128-Pad2)*%
X249220000Y-180640000D03*
%TO.P,SW64,1*%
%TO.N,/LedMatrix/LedR7*%
X233980000Y-180640000D03*
%TD*%
%TO.P,SW63,2*%
%TO.N,Net-(D127-Pad2)*%
X249220000Y-160640000D03*
%TO.P,SW63,1*%
%TO.N,/LedMatrix/LedR6*%
X233980000Y-160640000D03*
%TD*%
%TO.P,SW62,2*%
%TO.N,Net-(D126-Pad2)*%
X249220000Y-140640000D03*
%TO.P,SW62,1*%
%TO.N,/LedMatrix/LedR5*%
X233980000Y-140640000D03*
%TD*%
%TO.P,SW61,2*%
%TO.N,Net-(D125-Pad2)*%
X249220000Y-120640000D03*
%TO.P,SW61,1*%
%TO.N,/LedMatrix/LedR4*%
X233980000Y-120640000D03*
%TD*%
%TO.P,SW60,2*%
%TO.N,Net-(D124-Pad2)*%
X249220000Y-100640000D03*
%TO.P,SW60,1*%
%TO.N,/LedMatrix/LedR3*%
X233980000Y-100640000D03*
%TD*%
%TO.P,SW59,2*%
%TO.N,Net-(D123-Pad2)*%
X249220000Y-80640000D03*
%TO.P,SW59,1*%
%TO.N,/LedMatrix/LedR2*%
X233980000Y-80640000D03*
%TD*%
%TO.P,SW58,2*%
%TO.N,Net-(D122-Pad2)*%
X249220000Y-60640000D03*
%TO.P,SW58,1*%
%TO.N,/LedMatrix/LedR1*%
X233980000Y-60640000D03*
%TD*%
%TO.P,SW57,2*%
%TO.N,Net-(D121-Pad2)*%
X249220000Y-40640000D03*
%TO.P,SW57,1*%
%TO.N,/LedMatrix/LedR0*%
X233980000Y-40640000D03*
%TD*%
%TO.P,SW56,2*%
%TO.N,Net-(D120-Pad2)*%
X229220000Y-180640000D03*
%TO.P,SW56,1*%
%TO.N,/LedMatrix/LedR7*%
X213980000Y-180640000D03*
%TD*%
%TO.P,SW55,2*%
%TO.N,Net-(D119-Pad2)*%
X229220000Y-160640000D03*
%TO.P,SW55,1*%
%TO.N,/LedMatrix/LedR6*%
X213980000Y-160640000D03*
%TD*%
%TO.P,SW54,2*%
%TO.N,Net-(D118-Pad2)*%
X229220000Y-140640000D03*
%TO.P,SW54,1*%
%TO.N,/LedMatrix/LedR5*%
X213980000Y-140640000D03*
%TD*%
%TO.P,SW53,2*%
%TO.N,Net-(D117-Pad2)*%
X229220000Y-120640000D03*
%TO.P,SW53,1*%
%TO.N,/LedMatrix/LedR4*%
X213980000Y-120640000D03*
%TD*%
%TO.P,SW52,2*%
%TO.N,Net-(D116-Pad2)*%
X223520000Y-110490000D03*
%TO.P,SW52,1*%
%TO.N,/LedMatrix/LedR3*%
X223520000Y-95250000D03*
%TD*%
%TO.P,SW51,2*%
%TO.N,Net-(D115-Pad2)*%
X223520000Y-91440000D03*
%TO.P,SW51,1*%
%TO.N,/LedMatrix/LedR2*%
X223520000Y-76200000D03*
%TD*%
%TO.P,SW50,2*%
%TO.N,Net-(D114-Pad2)*%
X229220000Y-60640000D03*
%TO.P,SW50,1*%
%TO.N,/LedMatrix/LedR1*%
X213980000Y-60640000D03*
%TD*%
%TO.P,SW49,2*%
%TO.N,Net-(D113-Pad2)*%
X229220000Y-40640000D03*
%TO.P,SW49,1*%
%TO.N,/LedMatrix/LedR0*%
X213980000Y-40640000D03*
%TD*%
%TO.P,SW48,2*%
%TO.N,Net-(D112-Pad2)*%
X209220000Y-180640000D03*
%TO.P,SW48,1*%
%TO.N,/LedMatrix/LedR7*%
X193980000Y-180640000D03*
%TD*%
%TO.P,SW47,2*%
%TO.N,Net-(D111-Pad2)*%
X209220000Y-160640000D03*
%TO.P,SW47,1*%
%TO.N,/LedMatrix/LedR6*%
X193980000Y-160640000D03*
%TD*%
%TO.P,SW46,2*%
%TO.N,Net-(D110-Pad2)*%
X209220000Y-140640000D03*
%TO.P,SW46,1*%
%TO.N,/LedMatrix/LedR5*%
X193980000Y-140640000D03*
%TD*%
%TO.P,SW45,2*%
%TO.N,Net-(D109-Pad2)*%
X209220000Y-120640000D03*
%TO.P,SW45,1*%
%TO.N,/LedMatrix/LedR4*%
X193980000Y-120640000D03*
%TD*%
%TO.P,SW44,2*%
%TO.N,Net-(D108-Pad2)*%
X204470000Y-97790000D03*
%TO.P,SW44,1*%
%TO.N,/LedMatrix/LedR3*%
X204470000Y-113030000D03*
%TD*%
%TO.P,SW43,2*%
%TO.N,Net-(D107-Pad2)*%
X204470000Y-91440000D03*
%TO.P,SW43,1*%
%TO.N,/LedMatrix/LedR2*%
X204470000Y-76200000D03*
%TD*%
%TO.P,SW42,2*%
%TO.N,Net-(D106-Pad2)*%
X209220000Y-60640000D03*
%TO.P,SW42,1*%
%TO.N,/LedMatrix/LedR1*%
X193980000Y-60640000D03*
%TD*%
%TO.P,SW41,2*%
%TO.N,Net-(D105-Pad2)*%
X209220000Y-40640000D03*
%TO.P,SW41,1*%
%TO.N,/LedMatrix/LedR0*%
X193980000Y-40640000D03*
%TD*%
%TO.P,SW40,2*%
%TO.N,Net-(D104-Pad2)*%
X189220000Y-180640000D03*
%TO.P,SW40,1*%
%TO.N,/LedMatrix/LedR7*%
X173980000Y-180640000D03*
%TD*%
%TO.P,SW39,2*%
%TO.N,Net-(D103-Pad2)*%
X189220000Y-160640000D03*
%TO.P,SW39,1*%
%TO.N,/LedMatrix/LedR6*%
X173980000Y-160640000D03*
%TD*%
%TO.P,SW38,2*%
%TO.N,Net-(D102-Pad2)*%
X189220000Y-140640000D03*
%TO.P,SW38,1*%
%TO.N,/LedMatrix/LedR5*%
X173980000Y-140640000D03*
%TD*%
%TO.P,SW37,2*%
%TO.N,Net-(D101-Pad2)*%
X189220000Y-120640000D03*
%TO.P,SW37,1*%
%TO.N,/LedMatrix/LedR4*%
X173980000Y-120640000D03*
%TD*%
%TO.P,SW36,2*%
%TO.N,Net-(D100-Pad2)*%
X189220000Y-100640000D03*
%TO.P,SW36,1*%
%TO.N,/LedMatrix/LedR3*%
X173980000Y-100640000D03*
%TD*%
%TO.P,SW35,2*%
%TO.N,Net-(D99-Pad2)*%
X189220000Y-80640000D03*
%TO.P,SW35,1*%
%TO.N,/LedMatrix/LedR2*%
X173980000Y-80640000D03*
%TD*%
%TO.P,SW34,2*%
%TO.N,Net-(D98-Pad2)*%
X189220000Y-60640000D03*
%TO.P,SW34,1*%
%TO.N,/LedMatrix/LedR1*%
X173980000Y-60640000D03*
%TD*%
%TO.P,SW33,2*%
%TO.N,Net-(D97-Pad2)*%
X189220000Y-40640000D03*
%TO.P,SW33,1*%
%TO.N,/LedMatrix/LedR0*%
X173980000Y-40640000D03*
%TD*%
%TO.P,SW32,2*%
%TO.N,Net-(D96-Pad2)*%
X169220000Y-180640000D03*
%TO.P,SW32,1*%
%TO.N,/LedMatrix/LedR7*%
X153980000Y-180640000D03*
%TD*%
%TO.P,SW31,2*%
%TO.N,Net-(D95-Pad2)*%
X169220000Y-160640000D03*
%TO.P,SW31,1*%
%TO.N,/LedMatrix/LedR6*%
X153980000Y-160640000D03*
%TD*%
%TO.P,SW30,2*%
%TO.N,Net-(D94-Pad2)*%
X169220000Y-140640000D03*
%TO.P,SW30,1*%
%TO.N,/LedMatrix/LedR5*%
X153980000Y-140640000D03*
%TD*%
%TO.P,SW29,2*%
%TO.N,Net-(D93-Pad2)*%
X163830000Y-114300000D03*
%TO.P,SW29,1*%
%TO.N,/LedMatrix/LedR4*%
X163830000Y-129540000D03*
%TD*%
%TO.P,SW28,2*%
%TO.N,Net-(D92-Pad2)*%
X163830000Y-109220000D03*
%TO.P,SW28,1*%
%TO.N,/LedMatrix/LedR3*%
X163830000Y-93980000D03*
%TD*%
%TO.P,SW27,2*%
%TO.N,Net-(D91-Pad2)*%
X169220000Y-80640000D03*
%TO.P,SW27,1*%
%TO.N,/LedMatrix/LedR2*%
X153980000Y-80640000D03*
%TD*%
%TO.P,SW26,2*%
%TO.N,Net-(D90-Pad2)*%
X169220000Y-60640000D03*
%TO.P,SW26,1*%
%TO.N,/LedMatrix/LedR1*%
X153980000Y-60640000D03*
%TD*%
%TO.P,SW25,2*%
%TO.N,Net-(D89-Pad2)*%
X169220000Y-40640000D03*
%TO.P,SW25,1*%
%TO.N,/LedMatrix/LedR0*%
X153980000Y-40640000D03*
%TD*%
%TO.P,SW24,2*%
%TO.N,Net-(D88-Pad2)*%
X149220000Y-180640000D03*
%TO.P,SW24,1*%
%TO.N,/LedMatrix/LedR7*%
X133980000Y-180640000D03*
%TD*%
%TO.P,SW23,2*%
%TO.N,Net-(D87-Pad2)*%
X144780000Y-170180000D03*
%TO.P,SW23,1*%
%TO.N,/LedMatrix/LedR6*%
X144780000Y-154940000D03*
%TD*%
%TO.P,SW22,2*%
%TO.N,Net-(D86-Pad2)*%
X146050000Y-130810000D03*
%TO.P,SW22,1*%
%TO.N,/LedMatrix/LedR5*%
X146050000Y-146050000D03*
%TD*%
%TO.P,SW21,2*%
%TO.N,Net-(D85-Pad2)*%
X149220000Y-120640000D03*
%TO.P,SW21,1*%
%TO.N,/LedMatrix/LedR4*%
X133980000Y-120640000D03*
%TD*%
%TO.P,SW20,2*%
%TO.N,Net-(D84-Pad2)*%
X149220000Y-100640000D03*
%TO.P,SW20,1*%
%TO.N,/LedMatrix/LedR3*%
X133980000Y-100640000D03*
%TD*%
%TO.P,SW19,2*%
%TO.N,Net-(D83-Pad2)*%
X149220000Y-80640000D03*
%TO.P,SW19,1*%
%TO.N,/LedMatrix/LedR2*%
X133980000Y-80640000D03*
%TD*%
%TO.P,SW18,2*%
%TO.N,Net-(D82-Pad2)*%
X144780000Y-57150000D03*
%TO.P,SW18,1*%
%TO.N,/LedMatrix/LedR1*%
X144780000Y-72390000D03*
%TD*%
%TO.P,SW17,2*%
%TO.N,Net-(D81-Pad2)*%
X149220000Y-40640000D03*
%TO.P,SW17,1*%
%TO.N,/LedMatrix/LedR0*%
X133980000Y-40640000D03*
%TD*%
%TO.P,SW16,2*%
%TO.N,Net-(D80-Pad2)*%
X129220000Y-180640000D03*
%TO.P,SW16,1*%
%TO.N,/LedMatrix/LedR7*%
X113980000Y-180640000D03*
%TD*%
%TO.P,SW15,2*%
%TO.N,Net-(D79-Pad2)*%
X129220000Y-160640000D03*
%TO.P,SW15,1*%
%TO.N,/LedMatrix/LedR6*%
X113980000Y-160640000D03*
%TD*%
%TO.P,SW14,2*%
%TO.N,Net-(D78-Pad2)*%
X129220000Y-140640000D03*
%TO.P,SW14,1*%
%TO.N,/LedMatrix/LedR5*%
X113980000Y-140640000D03*
%TD*%
%TO.P,SW13,2*%
%TO.N,Net-(D77-Pad2)*%
X129220000Y-120640000D03*
%TO.P,SW13,1*%
%TO.N,/LedMatrix/LedR4*%
X113980000Y-120640000D03*
%TD*%
%TO.P,SW12,2*%
%TO.N,Net-(D76-Pad2)*%
X129220000Y-100640000D03*
%TO.P,SW12,1*%
%TO.N,/LedMatrix/LedR3*%
X113980000Y-100640000D03*
%TD*%
%TO.P,SW11,2*%
%TO.N,Net-(D75-Pad2)*%
X129220000Y-80640000D03*
%TO.P,SW11,1*%
%TO.N,/LedMatrix/LedR2*%
X113980000Y-80640000D03*
%TD*%
%TO.P,SW10,2*%
%TO.N,Net-(D74-Pad2)*%
X129220000Y-60640000D03*
%TO.P,SW10,1*%
%TO.N,/LedMatrix/LedR1*%
X113980000Y-60640000D03*
%TD*%
%TO.P,SW9,2*%
%TO.N,Net-(D73-Pad2)*%
X129220000Y-40640000D03*
%TO.P,SW9,1*%
%TO.N,/LedMatrix/LedR0*%
X113980000Y-40640000D03*
%TD*%
%TO.P,SW8,2*%
%TO.N,Net-(D72-Pad2)*%
X109220000Y-180640000D03*
%TO.P,SW8,1*%
%TO.N,/LedMatrix/LedR7*%
X93980000Y-180640000D03*
%TD*%
%TO.P,SW7,2*%
%TO.N,Net-(D71-Pad2)*%
X109220000Y-160640000D03*
%TO.P,SW7,1*%
%TO.N,/LedMatrix/LedR6*%
X93980000Y-160640000D03*
%TD*%
%TO.P,SW6,2*%
%TO.N,Net-(D70-Pad2)*%
X109220000Y-140640000D03*
%TO.P,SW6,1*%
%TO.N,/LedMatrix/LedR5*%
X93980000Y-140640000D03*
%TD*%
%TO.P,SW5,2*%
%TO.N,Net-(D69-Pad2)*%
X109220000Y-120640000D03*
%TO.P,SW5,1*%
%TO.N,/LedMatrix/LedR4*%
X93980000Y-120640000D03*
%TD*%
%TO.P,SW4,2*%
%TO.N,Net-(D68-Pad2)*%
X109220000Y-100640000D03*
%TO.P,SW4,1*%
%TO.N,/LedMatrix/LedR3*%
X93980000Y-100640000D03*
%TD*%
%TO.P,SW3,2*%
%TO.N,Net-(D67-Pad2)*%
X109220000Y-80640000D03*
%TO.P,SW3,1*%
%TO.N,/LedMatrix/LedR2*%
X93980000Y-80640000D03*
%TD*%
%TO.P,SW2,2*%
%TO.N,Net-(D66-Pad2)*%
X109220000Y-60640000D03*
%TO.P,SW2,1*%
%TO.N,/LedMatrix/LedR1*%
X93980000Y-60640000D03*
%TD*%
%TO.P,SW1,2*%
%TO.N,Net-(D65-Pad2)*%
X109220000Y-40640000D03*
%TO.P,SW1,1*%
%TO.N,/LedMatrix/LedR0*%
X93980000Y-40640000D03*
%TD*%
D11*
%TO.P,R8,2*%
%TO.N,/SwitchMatrix/SwC7*%
X240030000Y-30480000D03*
D14*
%TO.P,R8,1*%
%TO.N,GND*%
X247650000Y-30480000D03*
%TD*%
D11*
%TO.P,R7,2*%
%TO.N,/SwitchMatrix/SwC6*%
X219710000Y-30480000D03*
D14*
%TO.P,R7,1*%
%TO.N,GND*%
X227330000Y-30480000D03*
%TD*%
D11*
%TO.P,R6,2*%
%TO.N,/SwitchMatrix/SwC5*%
X200660000Y-30480000D03*
D14*
%TO.P,R6,1*%
%TO.N,GND*%
X208280000Y-30480000D03*
%TD*%
D11*
%TO.P,R5,2*%
%TO.N,/SwitchMatrix/SwC4*%
X180340000Y-30480000D03*
D14*
%TO.P,R5,1*%
%TO.N,GND*%
X187960000Y-30480000D03*
%TD*%
D11*
%TO.P,R4,2*%
%TO.N,/SwitchMatrix/SwC3*%
X160020000Y-30480000D03*
D14*
%TO.P,R4,1*%
%TO.N,GND*%
X167640000Y-30480000D03*
%TD*%
D11*
%TO.P,R3,2*%
%TO.N,/SwitchMatrix/SwC2*%
X140970000Y-30480000D03*
D14*
%TO.P,R3,1*%
%TO.N,GND*%
X148590000Y-30480000D03*
%TD*%
D11*
%TO.P,R2,2*%
%TO.N,/SwitchMatrix/SwC1*%
X120650000Y-30480000D03*
D14*
%TO.P,R2,1*%
%TO.N,GND*%
X128270000Y-30480000D03*
%TD*%
D11*
%TO.P,R1,2*%
%TO.N,/SwitchMatrix/SwC0*%
X100330000Y-30480000D03*
D14*
%TO.P,R1,1*%
%TO.N,GND*%
X107950000Y-30480000D03*
%TD*%
D11*
%TO.P,D128,2*%
%TO.N,Net-(D128-Pad2)*%
X249220000Y-176830000D03*
D12*
%TO.P,D128,1*%
%TO.N,/SwitchMatrix/SwC7*%
X241600000Y-176830000D03*
%TD*%
D11*
%TO.P,D127,2*%
%TO.N,Net-(D127-Pad2)*%
X247950000Y-170800000D03*
D12*
%TO.P,D127,1*%
%TO.N,/SwitchMatrix/SwC7*%
X240330000Y-170800000D03*
%TD*%
D11*
%TO.P,D126,2*%
%TO.N,Net-(D126-Pad2)*%
X247950000Y-150800000D03*
D12*
%TO.P,D126,1*%
%TO.N,/SwitchMatrix/SwC7*%
X240330000Y-150800000D03*
%TD*%
D11*
%TO.P,D125,2*%
%TO.N,Net-(D125-Pad2)*%
X247950000Y-130800000D03*
D12*
%TO.P,D125,1*%
%TO.N,/SwitchMatrix/SwC7*%
X240330000Y-130800000D03*
%TD*%
D11*
%TO.P,D124,2*%
%TO.N,Net-(D124-Pad2)*%
X247950000Y-110800000D03*
D12*
%TO.P,D124,1*%
%TO.N,/SwitchMatrix/SwC7*%
X240330000Y-110800000D03*
%TD*%
D11*
%TO.P,D123,2*%
%TO.N,Net-(D123-Pad2)*%
X247950000Y-90800000D03*
D12*
%TO.P,D123,1*%
%TO.N,/SwitchMatrix/SwC7*%
X240330000Y-90800000D03*
%TD*%
D11*
%TO.P,D122,2*%
%TO.N,Net-(D122-Pad2)*%
X247950000Y-70800000D03*
D12*
%TO.P,D122,1*%
%TO.N,/SwitchMatrix/SwC7*%
X240330000Y-70800000D03*
%TD*%
D11*
%TO.P,D121,2*%
%TO.N,Net-(D121-Pad2)*%
X247950000Y-50800000D03*
D12*
%TO.P,D121,1*%
%TO.N,/SwitchMatrix/SwC7*%
X240330000Y-50800000D03*
%TD*%
D11*
%TO.P,D120,2*%
%TO.N,Net-(D120-Pad2)*%
X229220000Y-176830000D03*
D12*
%TO.P,D120,1*%
%TO.N,/SwitchMatrix/SwC6*%
X221600000Y-176830000D03*
%TD*%
D11*
%TO.P,D119,2*%
%TO.N,Net-(D119-Pad2)*%
X227950000Y-170800000D03*
D12*
%TO.P,D119,1*%
%TO.N,/SwitchMatrix/SwC6*%
X220330000Y-170800000D03*
%TD*%
D11*
%TO.P,D118,2*%
%TO.N,Net-(D118-Pad2)*%
X228600000Y-150800000D03*
D12*
%TO.P,D118,1*%
%TO.N,/SwitchMatrix/SwC6*%
X220980000Y-150800000D03*
%TD*%
D11*
%TO.P,D117,2*%
%TO.N,Net-(D117-Pad2)*%
X228600000Y-130810000D03*
D12*
%TO.P,D117,1*%
%TO.N,/SwitchMatrix/SwC6*%
X220980000Y-130810000D03*
%TD*%
D11*
%TO.P,D116,2*%
%TO.N,Net-(D116-Pad2)*%
X226060000Y-116840000D03*
D12*
%TO.P,D116,1*%
%TO.N,/SwitchMatrix/SwC6*%
X218440000Y-116840000D03*
%TD*%
D11*
%TO.P,D115,2*%
%TO.N,Net-(D115-Pad2)*%
X227330000Y-71120000D03*
D12*
%TO.P,D115,1*%
%TO.N,/SwitchMatrix/SwC6*%
X219710000Y-71120000D03*
%TD*%
D11*
%TO.P,D114,2*%
%TO.N,Net-(D114-Pad2)*%
X227330000Y-67310000D03*
D12*
%TO.P,D114,1*%
%TO.N,/SwitchMatrix/SwC6*%
X219710000Y-67310000D03*
%TD*%
D11*
%TO.P,D113,2*%
%TO.N,Net-(D113-Pad2)*%
X227950000Y-50800000D03*
D12*
%TO.P,D113,1*%
%TO.N,/SwitchMatrix/SwC6*%
X220330000Y-50800000D03*
%TD*%
D11*
%TO.P,D112,2*%
%TO.N,Net-(D112-Pad2)*%
X209220000Y-176830000D03*
D12*
%TO.P,D112,1*%
%TO.N,/SwitchMatrix/SwC5*%
X201600000Y-176830000D03*
%TD*%
D11*
%TO.P,D111,2*%
%TO.N,Net-(D111-Pad2)*%
X207950000Y-170800000D03*
D12*
%TO.P,D111,1*%
%TO.N,/SwitchMatrix/SwC5*%
X200330000Y-170800000D03*
%TD*%
D11*
%TO.P,D110,2*%
%TO.N,Net-(D110-Pad2)*%
X207950000Y-150800000D03*
D12*
%TO.P,D110,1*%
%TO.N,/SwitchMatrix/SwC5*%
X200330000Y-150800000D03*
%TD*%
D11*
%TO.P,D109,2*%
%TO.N,Net-(D109-Pad2)*%
X207950000Y-130800000D03*
D12*
%TO.P,D109,1*%
%TO.N,/SwitchMatrix/SwC5*%
X200330000Y-130800000D03*
%TD*%
D11*
%TO.P,D108,2*%
%TO.N,Net-(D108-Pad2)*%
X209550000Y-116840000D03*
D12*
%TO.P,D108,1*%
%TO.N,/SwitchMatrix/SwC5*%
X201930000Y-116840000D03*
%TD*%
D11*
%TO.P,D107,2*%
%TO.N,Net-(D107-Pad2)*%
X207950000Y-71120000D03*
D12*
%TO.P,D107,1*%
%TO.N,/SwitchMatrix/SwC5*%
X200330000Y-71120000D03*
%TD*%
D11*
%TO.P,D106,2*%
%TO.N,Net-(D106-Pad2)*%
X207950000Y-67310000D03*
D12*
%TO.P,D106,1*%
%TO.N,/SwitchMatrix/SwC5*%
X200330000Y-67310000D03*
%TD*%
D11*
%TO.P,D105,2*%
%TO.N,Net-(D105-Pad2)*%
X207950000Y-50800000D03*
D12*
%TO.P,D105,1*%
%TO.N,/SwitchMatrix/SwC5*%
X200330000Y-50800000D03*
%TD*%
D11*
%TO.P,D104,2*%
%TO.N,Net-(D104-Pad2)*%
X189220000Y-176830000D03*
D12*
%TO.P,D104,1*%
%TO.N,/SwitchMatrix/SwC4*%
X181600000Y-176830000D03*
%TD*%
D11*
%TO.P,D103,2*%
%TO.N,Net-(D103-Pad2)*%
X187950000Y-170800000D03*
D12*
%TO.P,D103,1*%
%TO.N,/SwitchMatrix/SwC4*%
X180330000Y-170800000D03*
%TD*%
D11*
%TO.P,D102,2*%
%TO.N,Net-(D102-Pad2)*%
X187950000Y-150800000D03*
D12*
%TO.P,D102,1*%
%TO.N,/SwitchMatrix/SwC4*%
X180330000Y-150800000D03*
%TD*%
D11*
%TO.P,D101,2*%
%TO.N,Net-(D101-Pad2)*%
X187950000Y-130800000D03*
D12*
%TO.P,D101,1*%
%TO.N,/SwitchMatrix/SwC4*%
X180330000Y-130800000D03*
%TD*%
D11*
%TO.P,D100,2*%
%TO.N,Net-(D100-Pad2)*%
X187950000Y-110800000D03*
D12*
%TO.P,D100,1*%
%TO.N,/SwitchMatrix/SwC4*%
X180330000Y-110800000D03*
%TD*%
D11*
%TO.P,D99,2*%
%TO.N,Net-(D99-Pad2)*%
X187950000Y-90800000D03*
D12*
%TO.P,D99,1*%
%TO.N,/SwitchMatrix/SwC4*%
X180330000Y-90800000D03*
%TD*%
D11*
%TO.P,D98,2*%
%TO.N,Net-(D98-Pad2)*%
X187950000Y-70800000D03*
D12*
%TO.P,D98,1*%
%TO.N,/SwitchMatrix/SwC4*%
X180330000Y-70800000D03*
%TD*%
D11*
%TO.P,D97,2*%
%TO.N,Net-(D97-Pad2)*%
X187950000Y-50800000D03*
D12*
%TO.P,D97,1*%
%TO.N,/SwitchMatrix/SwC4*%
X180330000Y-50800000D03*
%TD*%
D11*
%TO.P,D96,2*%
%TO.N,Net-(D96-Pad2)*%
X169220000Y-176830000D03*
D12*
%TO.P,D96,1*%
%TO.N,/SwitchMatrix/SwC3*%
X161600000Y-176830000D03*
%TD*%
D11*
%TO.P,D95,2*%
%TO.N,Net-(D95-Pad2)*%
X167950000Y-170800000D03*
D12*
%TO.P,D95,1*%
%TO.N,/SwitchMatrix/SwC3*%
X160330000Y-170800000D03*
%TD*%
D11*
%TO.P,D94,2*%
%TO.N,Net-(D94-Pad2)*%
X167950000Y-150800000D03*
D12*
%TO.P,D94,1*%
%TO.N,/SwitchMatrix/SwC3*%
X160330000Y-150800000D03*
%TD*%
D11*
%TO.P,D93,2*%
%TO.N,Net-(D93-Pad2)*%
X160020000Y-123190000D03*
D12*
%TO.P,D93,1*%
%TO.N,/SwitchMatrix/SwC3*%
X160020000Y-130810000D03*
%TD*%
D11*
%TO.P,D92,2*%
%TO.N,Net-(D92-Pad2)*%
X167640000Y-123190000D03*
D12*
%TO.P,D92,1*%
%TO.N,/SwitchMatrix/SwC3*%
X167640000Y-130810000D03*
%TD*%
D11*
%TO.P,D91,2*%
%TO.N,Net-(D91-Pad2)*%
X167950000Y-90800000D03*
D12*
%TO.P,D91,1*%
%TO.N,/SwitchMatrix/SwC3*%
X160330000Y-90800000D03*
%TD*%
D11*
%TO.P,D90,2*%
%TO.N,Net-(D90-Pad2)*%
X167950000Y-70800000D03*
D12*
%TO.P,D90,1*%
%TO.N,/SwitchMatrix/SwC3*%
X160330000Y-70800000D03*
%TD*%
D11*
%TO.P,D89,2*%
%TO.N,Net-(D89-Pad2)*%
X167950000Y-50800000D03*
D12*
%TO.P,D89,1*%
%TO.N,/SwitchMatrix/SwC3*%
X160330000Y-50800000D03*
%TD*%
D11*
%TO.P,D88,2*%
%TO.N,Net-(D88-Pad2)*%
X149220000Y-176830000D03*
D12*
%TO.P,D88,1*%
%TO.N,/SwitchMatrix/SwC2*%
X141600000Y-176830000D03*
%TD*%
D11*
%TO.P,D87,2*%
%TO.N,Net-(D87-Pad2)*%
X147320000Y-172720000D03*
D12*
%TO.P,D87,1*%
%TO.N,/SwitchMatrix/SwC2*%
X139700000Y-172720000D03*
%TD*%
D11*
%TO.P,D86,2*%
%TO.N,Net-(D86-Pad2)*%
X148590000Y-128270000D03*
D12*
%TO.P,D86,1*%
%TO.N,/SwitchMatrix/SwC2*%
X140970000Y-128270000D03*
%TD*%
D11*
%TO.P,D85,2*%
%TO.N,Net-(D85-Pad2)*%
X148590000Y-124460000D03*
D12*
%TO.P,D85,1*%
%TO.N,/SwitchMatrix/SwC2*%
X140970000Y-124460000D03*
%TD*%
D11*
%TO.P,D84,2*%
%TO.N,Net-(D84-Pad2)*%
X147950000Y-110800000D03*
D12*
%TO.P,D84,1*%
%TO.N,/SwitchMatrix/SwC2*%
X140330000Y-110800000D03*
%TD*%
D11*
%TO.P,D83,2*%
%TO.N,Net-(D83-Pad2)*%
X147950000Y-90800000D03*
D12*
%TO.P,D83,1*%
%TO.N,/SwitchMatrix/SwC2*%
X140330000Y-90800000D03*
%TD*%
D11*
%TO.P,D82,2*%
%TO.N,Net-(D82-Pad2)*%
X140970000Y-64770000D03*
D12*
%TO.P,D82,1*%
%TO.N,/SwitchMatrix/SwC2*%
X140970000Y-72390000D03*
%TD*%
D11*
%TO.P,D81,2*%
%TO.N,Net-(D81-Pad2)*%
X147950000Y-36830000D03*
D12*
%TO.P,D81,1*%
%TO.N,/SwitchMatrix/SwC2*%
X140330000Y-36830000D03*
%TD*%
D11*
%TO.P,D80,2*%
%TO.N,Net-(D80-Pad2)*%
X129220000Y-176830000D03*
D12*
%TO.P,D80,1*%
%TO.N,/SwitchMatrix/SwC1*%
X121600000Y-176830000D03*
%TD*%
D11*
%TO.P,D79,2*%
%TO.N,Net-(D79-Pad2)*%
X127950000Y-170800000D03*
D12*
%TO.P,D79,1*%
%TO.N,/SwitchMatrix/SwC1*%
X120330000Y-170800000D03*
%TD*%
D11*
%TO.P,D78,2*%
%TO.N,Net-(D78-Pad2)*%
X127950000Y-150800000D03*
D12*
%TO.P,D78,1*%
%TO.N,/SwitchMatrix/SwC1*%
X120330000Y-150800000D03*
%TD*%
D11*
%TO.P,D77,2*%
%TO.N,Net-(D77-Pad2)*%
X127950000Y-130800000D03*
D12*
%TO.P,D77,1*%
%TO.N,/SwitchMatrix/SwC1*%
X120330000Y-130800000D03*
%TD*%
D11*
%TO.P,D76,2*%
%TO.N,Net-(D76-Pad2)*%
X127950000Y-110800000D03*
D12*
%TO.P,D76,1*%
%TO.N,/SwitchMatrix/SwC1*%
X120330000Y-110800000D03*
%TD*%
D11*
%TO.P,D75,2*%
%TO.N,Net-(D75-Pad2)*%
X127950000Y-90800000D03*
D12*
%TO.P,D75,1*%
%TO.N,/SwitchMatrix/SwC1*%
X120330000Y-90800000D03*
%TD*%
D11*
%TO.P,D74,2*%
%TO.N,Net-(D74-Pad2)*%
X127950000Y-70800000D03*
D12*
%TO.P,D74,1*%
%TO.N,/SwitchMatrix/SwC1*%
X120330000Y-70800000D03*
%TD*%
D11*
%TO.P,D73,2*%
%TO.N,Net-(D73-Pad2)*%
X127950000Y-50800000D03*
D12*
%TO.P,D73,1*%
%TO.N,/SwitchMatrix/SwC1*%
X120330000Y-50800000D03*
%TD*%
D11*
%TO.P,D72,2*%
%TO.N,Net-(D72-Pad2)*%
X109220000Y-176830000D03*
D12*
%TO.P,D72,1*%
%TO.N,/SwitchMatrix/SwC0*%
X101600000Y-176830000D03*
%TD*%
D11*
%TO.P,D71,2*%
%TO.N,Net-(D71-Pad2)*%
X107950000Y-170800000D03*
D12*
%TO.P,D71,1*%
%TO.N,/SwitchMatrix/SwC0*%
X100330000Y-170800000D03*
%TD*%
D11*
%TO.P,D70,2*%
%TO.N,Net-(D70-Pad2)*%
X107950000Y-150800000D03*
D12*
%TO.P,D70,1*%
%TO.N,/SwitchMatrix/SwC0*%
X100330000Y-150800000D03*
%TD*%
D11*
%TO.P,D69,2*%
%TO.N,Net-(D69-Pad2)*%
X107950000Y-130800000D03*
D12*
%TO.P,D69,1*%
%TO.N,/SwitchMatrix/SwC0*%
X100330000Y-130800000D03*
%TD*%
D11*
%TO.P,D68,2*%
%TO.N,Net-(D68-Pad2)*%
X107950000Y-110800000D03*
D12*
%TO.P,D68,1*%
%TO.N,/SwitchMatrix/SwC0*%
X100330000Y-110800000D03*
%TD*%
D11*
%TO.P,D67,2*%
%TO.N,Net-(D67-Pad2)*%
X107950000Y-90800000D03*
D12*
%TO.P,D67,1*%
%TO.N,/SwitchMatrix/SwC0*%
X100330000Y-90800000D03*
%TD*%
D11*
%TO.P,D66,2*%
%TO.N,Net-(D66-Pad2)*%
X107950000Y-70800000D03*
D12*
%TO.P,D66,1*%
%TO.N,/SwitchMatrix/SwC0*%
X100330000Y-70800000D03*
%TD*%
D11*
%TO.P,D65,2*%
%TO.N,Net-(D65-Pad2)*%
X107950000Y-50800000D03*
D12*
%TO.P,D65,1*%
%TO.N,/SwitchMatrix/SwC0*%
X100330000Y-50800000D03*
%TD*%
D15*
%TO.P,J3,4*%
%TO.N,SDA*%
X78740000Y-123190000D03*
%TO.P,J3,3*%
%TO.N,SCL*%
X76200000Y-123190000D03*
%TO.P,J3,2*%
%TO.N,3V3*%
X73660000Y-123190000D03*
D16*
%TO.P,J3,1*%
%TO.N,GND*%
X71120000Y-123190000D03*
%TD*%
D15*
%TO.P,J2,16*%
%TO.N,Net-(J2-Pad16)*%
X59550000Y-121920000D03*
%TO.P,J2,15*%
%TO.N,Net-(J2-Pad15)*%
X59550000Y-124460000D03*
%TO.P,J2,14*%
%TO.N,Net-(J2-Pad14)*%
X59550000Y-127000000D03*
%TO.P,J2,13*%
%TO.N,Net-(J2-Pad13)*%
X59550000Y-129540000D03*
%TO.P,J2,12*%
%TO.N,SWSL*%
X59550000Y-132080000D03*
%TO.P,J2,11*%
%TO.N,SWCLK*%
X59550000Y-134620000D03*
%TO.P,J2,10*%
%TO.N,SWDAT*%
X59550000Y-137160000D03*
%TO.P,J2,9*%
%TO.N,Net-(J2-Pad9)*%
X59550000Y-139700000D03*
%TO.P,J2,8*%
%TO.N,Net-(J2-Pad8)*%
X59550000Y-142240000D03*
%TO.P,J2,7*%
%TO.N,Net-(J2-Pad7)*%
X59550000Y-144780000D03*
%TO.P,J2,6*%
%TO.N,SWRCP*%
X59550000Y-147320000D03*
%TO.P,J2,5*%
%TO.N,Net-(J2-Pad5)*%
X59550000Y-149860000D03*
%TO.P,J2,4*%
%TO.N,Net-(J2-Pad4)*%
X59550000Y-152400000D03*
%TO.P,J2,3*%
%TO.N,Net-(J2-Pad3)*%
X59550000Y-154940000D03*
%TO.P,J2,2*%
%TO.N,VCC*%
X59550000Y-157480000D03*
D16*
%TO.P,J2,1*%
%TO.N,GND*%
X59550000Y-160020000D03*
%TD*%
D15*
%TO.P,J1,20*%
%TO.N,Net-(J1-Pad20)*%
X82550000Y-121920000D03*
%TO.P,J1,19*%
%TO.N,Net-(J1-Pad19)*%
X82550000Y-124460000D03*
%TO.P,J1,18*%
%TO.N,Net-(J1-Pad18)*%
X82550000Y-127000000D03*
%TO.P,J1,17*%
%TO.N,Net-(J1-Pad17)*%
X82550000Y-129540000D03*
%TO.P,J1,16*%
%TO.N,SCL*%
X82550000Y-132080000D03*
%TO.P,J1,15*%
%TO.N,SDA*%
X82550000Y-134620000D03*
%TO.P,J1,14*%
%TO.N,Net-(J1-Pad14)*%
X82550000Y-137160000D03*
%TO.P,J1,13*%
%TO.N,Net-(J1-Pad13)*%
X82550000Y-139700000D03*
%TO.P,J1,12*%
%TO.N,Net-(J1-Pad12)*%
X82550000Y-142240000D03*
%TO.P,J1,11*%
%TO.N,Net-(J1-Pad11)*%
X82550000Y-144780000D03*
%TO.P,J1,10*%
%TO.N,Net-(J1-Pad10)*%
X82550000Y-147320000D03*
%TO.P,J1,9*%
%TO.N,Net-(J1-Pad9)*%
X82550000Y-149860000D03*
%TO.P,J1,8*%
%TO.N,3V3*%
X82550000Y-152400000D03*
%TO.P,J1,7*%
%TO.N,SHCLK*%
X82550000Y-154940000D03*
%TO.P,J1,6*%
%TO.N,RCLK*%
X82550000Y-157480000D03*
%TO.P,J1,5*%
%TO.N,LCLK*%
X82550000Y-160020000D03*
%TO.P,J1,4*%
%TO.N,RLDS*%
X82550000Y-162560000D03*
%TO.P,J1,3*%
%TO.N,Net-(J1-Pad3)*%
X82550000Y-165100000D03*
%TO.P,J1,2*%
%TO.N,Net-(J1-Pad2)*%
X82550000Y-167640000D03*
D16*
%TO.P,J1,1*%
%TO.N,Net-(J1-Pad1)*%
X82550000Y-170180000D03*
%TD*%
D17*
%TO.P,D19,3*%
%TO.N,/LedMatrix/LedRC2*%
X136520000Y-70480000D03*
%TO.P,D19,2*%
%TO.N,/LedMatrix/LedR2*%
X133980000Y-70480000D03*
D18*
%TO.P,D19,1*%
%TO.N,/LedMatrix/LedGC2*%
X131440000Y-70480000D03*
%TD*%
D17*
%TO.P,D27,3*%
%TO.N,/LedMatrix/LedRC3*%
X156520000Y-70480000D03*
%TO.P,D27,2*%
%TO.N,/LedMatrix/LedR2*%
X153980000Y-70480000D03*
D18*
%TO.P,D27,1*%
%TO.N,/LedMatrix/LedGC3*%
X151440000Y-70480000D03*
%TD*%
D19*
%TO.P,U5,1*%
%TO.N,/LedMatrix/LedRC6*%
X148590000Y-140970000D03*
D20*
%TO.P,U5,2*%
%TO.N,/LedMatrix/LedRC5*%
X148590000Y-143510000D03*
%TO.P,U5,3*%
%TO.N,/LedMatrix/LedRC4*%
X148590000Y-146050000D03*
%TO.P,U5,4*%
%TO.N,/LedMatrix/LedRC3*%
X148590000Y-148590000D03*
%TO.P,U5,5*%
%TO.N,/LedMatrix/LedRC2*%
X148590000Y-151130000D03*
%TO.P,U5,6*%
%TO.N,/LedMatrix/LedRC1*%
X148590000Y-153670000D03*
%TO.P,U5,7*%
%TO.N,/LedMatrix/LedRC0*%
X148590000Y-156210000D03*
%TO.P,U5,8*%
%TO.N,GND*%
X148590000Y-158750000D03*
%TO.P,U5,9*%
%TO.N,Net-(U4-Pad14)*%
X140970000Y-158750000D03*
%TO.P,U5,10*%
%TO.N,VCC*%
X140970000Y-156210000D03*
%TO.P,U5,11*%
%TO.N,SHCLK*%
X140970000Y-153670000D03*
%TO.P,U5,12*%
%TO.N,LCLK*%
X140970000Y-151130000D03*
%TO.P,U5,13*%
%TO.N,GND*%
X140970000Y-148590000D03*
%TO.P,U5,14*%
%TO.N,RLDS*%
X140970000Y-146050000D03*
%TO.P,U5,15*%
%TO.N,/LedMatrix/LedRC7*%
X140970000Y-143510000D03*
%TO.P,U5,16*%
%TO.N,VCC*%
X140970000Y-140970000D03*
%TD*%
D19*
%TO.P,U4,1*%
%TO.N,/LedMatrix/LedGC6*%
X148590000Y-44450000D03*
D20*
%TO.P,U4,2*%
%TO.N,/LedMatrix/LedGC5*%
X148590000Y-46990000D03*
%TO.P,U4,3*%
%TO.N,/LedMatrix/LedGC4*%
X148590000Y-49530000D03*
%TO.P,U4,4*%
%TO.N,/LedMatrix/LedGC3*%
X148590000Y-52070000D03*
%TO.P,U4,5*%
%TO.N,/LedMatrix/LedGC2*%
X148590000Y-54610000D03*
%TO.P,U4,6*%
%TO.N,/LedMatrix/LedGC1*%
X148590000Y-57150000D03*
%TO.P,U4,7*%
%TO.N,/LedMatrix/LedGC0*%
X148590000Y-59690000D03*
%TO.P,U4,8*%
%TO.N,GND*%
X148590000Y-62230000D03*
%TO.P,U4,9*%
%TO.N,Net-(U4-Pad9)*%
X140970000Y-62230000D03*
%TO.P,U4,10*%
%TO.N,VCC*%
X140970000Y-59690000D03*
%TO.P,U4,11*%
%TO.N,SHCLK*%
X140970000Y-57150000D03*
%TO.P,U4,12*%
%TO.N,LCLK*%
X140970000Y-54610000D03*
%TO.P,U4,13*%
%TO.N,GND*%
X140970000Y-52070000D03*
%TO.P,U4,14*%
%TO.N,Net-(U4-Pad14)*%
X140970000Y-49530000D03*
%TO.P,U4,15*%
%TO.N,/LedMatrix/LedGC7*%
X140970000Y-46990000D03*
%TO.P,U4,16*%
%TO.N,VCC*%
X140970000Y-44450000D03*
%TD*%
D19*
%TO.P,U3,1*%
%TO.N,Net-(U1-Pad7)*%
X219710000Y-102870000D03*
D20*
%TO.P,U3,2*%
%TO.N,Net-(U1-Pad6)*%
X219710000Y-100330000D03*
%TO.P,U3,3*%
%TO.N,Net-(U1-Pad5)*%
X219710000Y-97790000D03*
%TO.P,U3,4*%
%TO.N,Net-(U1-Pad4)*%
X219710000Y-95250000D03*
%TO.P,U3,5*%
%TO.N,Net-(U1-Pad3)*%
X219710000Y-92710000D03*
%TO.P,U3,6*%
%TO.N,Net-(U1-Pad2)*%
X219710000Y-90170000D03*
%TO.P,U3,7*%
%TO.N,Net-(U1-Pad1)*%
X219710000Y-87630000D03*
%TO.P,U3,8*%
%TO.N,Net-(U1-Pad15)*%
X219710000Y-85090000D03*
%TO.P,U3,9*%
%TO.N,VCC*%
X219710000Y-82550000D03*
%TO.P,U3,10*%
%TO.N,GND*%
X227330000Y-82550000D03*
%TO.P,U3,11*%
%TO.N,/LedMatrix/LedR0*%
X227330000Y-85090000D03*
%TO.P,U3,12*%
%TO.N,/LedMatrix/LedR1*%
X227330000Y-87630000D03*
%TO.P,U3,13*%
%TO.N,/LedMatrix/LedR2*%
X227330000Y-90170000D03*
%TO.P,U3,14*%
%TO.N,/LedMatrix/LedR3*%
X227330000Y-92710000D03*
%TO.P,U3,15*%
%TO.N,/LedMatrix/LedR4*%
X227330000Y-95250000D03*
%TO.P,U3,16*%
%TO.N,/LedMatrix/LedR5*%
X227330000Y-97790000D03*
%TO.P,U3,17*%
%TO.N,/LedMatrix/LedR6*%
X227330000Y-100330000D03*
%TO.P,U3,18*%
%TO.N,/LedMatrix/LedR7*%
X227330000Y-102870000D03*
%TD*%
D19*
%TO.P,U2,1*%
%TO.N,SWSL*%
X167640000Y-101600000D03*
D20*
%TO.P,U2,2*%
%TO.N,SWCLK*%
X167640000Y-104140000D03*
%TO.P,U2,3*%
%TO.N,/SwitchMatrix/SwC4*%
X167640000Y-106680000D03*
%TO.P,U2,4*%
%TO.N,/SwitchMatrix/SwC5*%
X167640000Y-109220000D03*
%TO.P,U2,5*%
%TO.N,/SwitchMatrix/SwC6*%
X167640000Y-111760000D03*
%TO.P,U2,6*%
%TO.N,/SwitchMatrix/SwC7*%
X167640000Y-114300000D03*
%TO.P,U2,7*%
%TO.N,Net-(U2-Pad7)*%
X167640000Y-116840000D03*
%TO.P,U2,8*%
%TO.N,GND*%
X167640000Y-119380000D03*
%TO.P,U2,9*%
%TO.N,SWDAT*%
X160020000Y-119380000D03*
%TO.P,U2,10*%
%TO.N,GND*%
X160020000Y-116840000D03*
%TO.P,U2,11*%
%TO.N,/SwitchMatrix/SwC0*%
X160020000Y-114300000D03*
%TO.P,U2,12*%
%TO.N,/SwitchMatrix/SwC1*%
X160020000Y-111760000D03*
%TO.P,U2,13*%
%TO.N,/SwitchMatrix/SwC2*%
X160020000Y-109220000D03*
%TO.P,U2,14*%
%TO.N,/SwitchMatrix/SwC3*%
X160020000Y-106680000D03*
%TO.P,U2,15*%
%TO.N,GND*%
X160020000Y-104140000D03*
%TO.P,U2,16*%
%TO.N,VCC*%
X160020000Y-101600000D03*
%TD*%
D19*
%TO.P,U1,1*%
%TO.N,Net-(U1-Pad1)*%
X208280000Y-85090000D03*
D20*
%TO.P,U1,2*%
%TO.N,Net-(U1-Pad2)*%
X208280000Y-87630000D03*
%TO.P,U1,3*%
%TO.N,Net-(U1-Pad3)*%
X208280000Y-90170000D03*
%TO.P,U1,4*%
%TO.N,Net-(U1-Pad4)*%
X208280000Y-92710000D03*
%TO.P,U1,5*%
%TO.N,Net-(U1-Pad5)*%
X208280000Y-95250000D03*
%TO.P,U1,6*%
%TO.N,Net-(U1-Pad6)*%
X208280000Y-97790000D03*
%TO.P,U1,7*%
%TO.N,Net-(U1-Pad7)*%
X208280000Y-100330000D03*
%TO.P,U1,8*%
%TO.N,GND*%
X208280000Y-102870000D03*
%TO.P,U1,9*%
%TO.N,Net-(U1-Pad9)*%
X200660000Y-102870000D03*
%TO.P,U1,10*%
%TO.N,VCC*%
X200660000Y-100330000D03*
%TO.P,U1,11*%
%TO.N,SHCLK*%
X200660000Y-97790000D03*
%TO.P,U1,12*%
%TO.N,RCLK*%
X200660000Y-95250000D03*
%TO.P,U1,13*%
%TO.N,GND*%
X200660000Y-92710000D03*
%TO.P,U1,14*%
%TO.N,RLDS*%
X200660000Y-90170000D03*
%TO.P,U1,15*%
%TO.N,Net-(U1-Pad15)*%
X200660000Y-87630000D03*
%TO.P,U1,16*%
%TO.N,VCC*%
X200660000Y-85090000D03*
%TD*%
D17*
%TO.P,D64,3*%
%TO.N,/LedMatrix/LedRC7*%
X236520000Y-170480000D03*
%TO.P,D64,2*%
%TO.N,/LedMatrix/LedR7*%
X233980000Y-170480000D03*
D18*
%TO.P,D64,1*%
%TO.N,/LedMatrix/LedGC7*%
X231440000Y-170480000D03*
%TD*%
D17*
%TO.P,D63,3*%
%TO.N,/LedMatrix/LedRC7*%
X236520000Y-150480000D03*
%TO.P,D63,2*%
%TO.N,/LedMatrix/LedR6*%
X233980000Y-150480000D03*
D18*
%TO.P,D63,1*%
%TO.N,/LedMatrix/LedGC7*%
X231440000Y-150480000D03*
%TD*%
D17*
%TO.P,D62,3*%
%TO.N,/LedMatrix/LedRC7*%
X236520000Y-130480000D03*
%TO.P,D62,2*%
%TO.N,/LedMatrix/LedR5*%
X233980000Y-130480000D03*
D18*
%TO.P,D62,1*%
%TO.N,/LedMatrix/LedGC7*%
X231440000Y-130480000D03*
%TD*%
D17*
%TO.P,D61,3*%
%TO.N,/LedMatrix/LedRC7*%
X236520000Y-110480000D03*
%TO.P,D61,2*%
%TO.N,/LedMatrix/LedR4*%
X233980000Y-110480000D03*
D18*
%TO.P,D61,1*%
%TO.N,/LedMatrix/LedGC7*%
X231440000Y-110480000D03*
%TD*%
D17*
%TO.P,D60,3*%
%TO.N,/LedMatrix/LedRC7*%
X236520000Y-90480000D03*
%TO.P,D60,2*%
%TO.N,/LedMatrix/LedR3*%
X233980000Y-90480000D03*
D18*
%TO.P,D60,1*%
%TO.N,/LedMatrix/LedGC7*%
X231440000Y-90480000D03*
%TD*%
D17*
%TO.P,D59,3*%
%TO.N,/LedMatrix/LedRC7*%
X236520000Y-70480000D03*
%TO.P,D59,2*%
%TO.N,/LedMatrix/LedR2*%
X233980000Y-70480000D03*
D18*
%TO.P,D59,1*%
%TO.N,/LedMatrix/LedGC7*%
X231440000Y-70480000D03*
%TD*%
D17*
%TO.P,D58,3*%
%TO.N,/LedMatrix/LedRC7*%
X236520000Y-50480000D03*
%TO.P,D58,2*%
%TO.N,/LedMatrix/LedR1*%
X233980000Y-50480000D03*
D18*
%TO.P,D58,1*%
%TO.N,/LedMatrix/LedGC7*%
X231440000Y-50480000D03*
%TD*%
D17*
%TO.P,D57,3*%
%TO.N,/LedMatrix/LedRC7*%
X236520000Y-30480000D03*
%TO.P,D57,2*%
%TO.N,/LedMatrix/LedR0*%
X233980000Y-30480000D03*
D18*
%TO.P,D57,1*%
%TO.N,/LedMatrix/LedGC7*%
X231440000Y-30480000D03*
%TD*%
D17*
%TO.P,D56,3*%
%TO.N,/LedMatrix/LedRC6*%
X216520000Y-170480000D03*
%TO.P,D56,2*%
%TO.N,/LedMatrix/LedR7*%
X213980000Y-170480000D03*
D18*
%TO.P,D56,1*%
%TO.N,/LedMatrix/LedGC6*%
X211440000Y-170480000D03*
%TD*%
D17*
%TO.P,D55,3*%
%TO.N,/LedMatrix/LedRC6*%
X216520000Y-150480000D03*
%TO.P,D55,2*%
%TO.N,/LedMatrix/LedR6*%
X213980000Y-150480000D03*
D18*
%TO.P,D55,1*%
%TO.N,/LedMatrix/LedGC6*%
X211440000Y-150480000D03*
%TD*%
D17*
%TO.P,D54,3*%
%TO.N,/LedMatrix/LedRC6*%
X216520000Y-130480000D03*
%TO.P,D54,2*%
%TO.N,/LedMatrix/LedR5*%
X213980000Y-130480000D03*
D18*
%TO.P,D54,1*%
%TO.N,/LedMatrix/LedGC6*%
X211440000Y-130480000D03*
%TD*%
D17*
%TO.P,D53,3*%
%TO.N,/LedMatrix/LedRC6*%
X216520000Y-110480000D03*
%TO.P,D53,2*%
%TO.N,/LedMatrix/LedR4*%
X213980000Y-110480000D03*
D18*
%TO.P,D53,1*%
%TO.N,/LedMatrix/LedGC6*%
X211440000Y-110480000D03*
%TD*%
D17*
%TO.P,D52,3*%
%TO.N,/LedMatrix/LedRC6*%
X216520000Y-90480000D03*
%TO.P,D52,2*%
%TO.N,/LedMatrix/LedR3*%
X213980000Y-90480000D03*
D18*
%TO.P,D52,1*%
%TO.N,/LedMatrix/LedGC6*%
X211440000Y-90480000D03*
%TD*%
D17*
%TO.P,D51,3*%
%TO.N,/LedMatrix/LedRC6*%
X216520000Y-70480000D03*
%TO.P,D51,2*%
%TO.N,/LedMatrix/LedR2*%
X213980000Y-70480000D03*
D18*
%TO.P,D51,1*%
%TO.N,/LedMatrix/LedGC6*%
X211440000Y-70480000D03*
%TD*%
D17*
%TO.P,D50,3*%
%TO.N,/LedMatrix/LedRC6*%
X216520000Y-50480000D03*
%TO.P,D50,2*%
%TO.N,/LedMatrix/LedR1*%
X213980000Y-50480000D03*
D18*
%TO.P,D50,1*%
%TO.N,/LedMatrix/LedGC6*%
X211440000Y-50480000D03*
%TD*%
D17*
%TO.P,D49,3*%
%TO.N,/LedMatrix/LedRC6*%
X216520000Y-30480000D03*
%TO.P,D49,2*%
%TO.N,/LedMatrix/LedR0*%
X213980000Y-30480000D03*
D18*
%TO.P,D49,1*%
%TO.N,/LedMatrix/LedGC6*%
X211440000Y-30480000D03*
%TD*%
D17*
%TO.P,D48,3*%
%TO.N,/LedMatrix/LedRC5*%
X196520000Y-170480000D03*
%TO.P,D48,2*%
%TO.N,/LedMatrix/LedR7*%
X193980000Y-170480000D03*
D18*
%TO.P,D48,1*%
%TO.N,/LedMatrix/LedGC5*%
X191440000Y-170480000D03*
%TD*%
D17*
%TO.P,D47,3*%
%TO.N,/LedMatrix/LedRC5*%
X196520000Y-150480000D03*
%TO.P,D47,2*%
%TO.N,/LedMatrix/LedR6*%
X193980000Y-150480000D03*
D18*
%TO.P,D47,1*%
%TO.N,/LedMatrix/LedGC5*%
X191440000Y-150480000D03*
%TD*%
D17*
%TO.P,D46,3*%
%TO.N,/LedMatrix/LedRC5*%
X196520000Y-130480000D03*
%TO.P,D46,2*%
%TO.N,/LedMatrix/LedR5*%
X193980000Y-130480000D03*
D18*
%TO.P,D46,1*%
%TO.N,/LedMatrix/LedGC5*%
X191440000Y-130480000D03*
%TD*%
D17*
%TO.P,D45,3*%
%TO.N,/LedMatrix/LedRC5*%
X196520000Y-110480000D03*
%TO.P,D45,2*%
%TO.N,/LedMatrix/LedR4*%
X193980000Y-110480000D03*
D18*
%TO.P,D45,1*%
%TO.N,/LedMatrix/LedGC5*%
X191440000Y-110480000D03*
%TD*%
D17*
%TO.P,D44,3*%
%TO.N,/LedMatrix/LedRC5*%
X196520000Y-90480000D03*
%TO.P,D44,2*%
%TO.N,/LedMatrix/LedR3*%
X193980000Y-90480000D03*
D18*
%TO.P,D44,1*%
%TO.N,/LedMatrix/LedGC5*%
X191440000Y-90480000D03*
%TD*%
D17*
%TO.P,D43,3*%
%TO.N,/LedMatrix/LedRC5*%
X196520000Y-70480000D03*
%TO.P,D43,2*%
%TO.N,/LedMatrix/LedR2*%
X193980000Y-70480000D03*
D18*
%TO.P,D43,1*%
%TO.N,/LedMatrix/LedGC5*%
X191440000Y-70480000D03*
%TD*%
D17*
%TO.P,D42,3*%
%TO.N,/LedMatrix/LedRC5*%
X196520000Y-50480000D03*
%TO.P,D42,2*%
%TO.N,/LedMatrix/LedR1*%
X193980000Y-50480000D03*
D18*
%TO.P,D42,1*%
%TO.N,/LedMatrix/LedGC5*%
X191440000Y-50480000D03*
%TD*%
D17*
%TO.P,D41,3*%
%TO.N,/LedMatrix/LedRC5*%
X196520000Y-30480000D03*
%TO.P,D41,2*%
%TO.N,/LedMatrix/LedR0*%
X193980000Y-30480000D03*
D18*
%TO.P,D41,1*%
%TO.N,/LedMatrix/LedGC5*%
X191440000Y-30480000D03*
%TD*%
D17*
%TO.P,D40,3*%
%TO.N,/LedMatrix/LedRC4*%
X176520000Y-170480000D03*
%TO.P,D40,2*%
%TO.N,/LedMatrix/LedR7*%
X173980000Y-170480000D03*
D18*
%TO.P,D40,1*%
%TO.N,/LedMatrix/LedGC4*%
X171440000Y-170480000D03*
%TD*%
D17*
%TO.P,D39,3*%
%TO.N,/LedMatrix/LedRC4*%
X176520000Y-150480000D03*
%TO.P,D39,2*%
%TO.N,/LedMatrix/LedR6*%
X173980000Y-150480000D03*
D18*
%TO.P,D39,1*%
%TO.N,/LedMatrix/LedGC4*%
X171440000Y-150480000D03*
%TD*%
D17*
%TO.P,D38,3*%
%TO.N,/LedMatrix/LedRC4*%
X176520000Y-130480000D03*
%TO.P,D38,2*%
%TO.N,/LedMatrix/LedR5*%
X173980000Y-130480000D03*
D18*
%TO.P,D38,1*%
%TO.N,/LedMatrix/LedGC4*%
X171440000Y-130480000D03*
%TD*%
D17*
%TO.P,D37,3*%
%TO.N,/LedMatrix/LedRC4*%
X176520000Y-110480000D03*
%TO.P,D37,2*%
%TO.N,/LedMatrix/LedR4*%
X173980000Y-110480000D03*
D18*
%TO.P,D37,1*%
%TO.N,/LedMatrix/LedGC4*%
X171440000Y-110480000D03*
%TD*%
D17*
%TO.P,D36,3*%
%TO.N,/LedMatrix/LedRC4*%
X176520000Y-90480000D03*
%TO.P,D36,2*%
%TO.N,/LedMatrix/LedR3*%
X173980000Y-90480000D03*
D18*
%TO.P,D36,1*%
%TO.N,/LedMatrix/LedGC4*%
X171440000Y-90480000D03*
%TD*%
D17*
%TO.P,D35,3*%
%TO.N,/LedMatrix/LedRC4*%
X176520000Y-70480000D03*
%TO.P,D35,2*%
%TO.N,/LedMatrix/LedR2*%
X173980000Y-70480000D03*
D18*
%TO.P,D35,1*%
%TO.N,/LedMatrix/LedGC4*%
X171440000Y-70480000D03*
%TD*%
D17*
%TO.P,D34,3*%
%TO.N,/LedMatrix/LedRC4*%
X176520000Y-50480000D03*
%TO.P,D34,2*%
%TO.N,/LedMatrix/LedR1*%
X173980000Y-50480000D03*
D18*
%TO.P,D34,1*%
%TO.N,/LedMatrix/LedGC4*%
X171440000Y-50480000D03*
%TD*%
D17*
%TO.P,D33,3*%
%TO.N,/LedMatrix/LedRC4*%
X176520000Y-30480000D03*
%TO.P,D33,2*%
%TO.N,/LedMatrix/LedR0*%
X173980000Y-30480000D03*
D18*
%TO.P,D33,1*%
%TO.N,/LedMatrix/LedGC4*%
X171440000Y-30480000D03*
%TD*%
D17*
%TO.P,D32,3*%
%TO.N,/LedMatrix/LedRC3*%
X156520000Y-170480000D03*
%TO.P,D32,2*%
%TO.N,/LedMatrix/LedR7*%
X153980000Y-170480000D03*
D18*
%TO.P,D32,1*%
%TO.N,/LedMatrix/LedGC3*%
X151440000Y-170480000D03*
%TD*%
D17*
%TO.P,D31,3*%
%TO.N,/LedMatrix/LedRC3*%
X156520000Y-150480000D03*
%TO.P,D31,2*%
%TO.N,/LedMatrix/LedR6*%
X153980000Y-150480000D03*
D18*
%TO.P,D31,1*%
%TO.N,/LedMatrix/LedGC3*%
X151440000Y-150480000D03*
%TD*%
D17*
%TO.P,D30,3*%
%TO.N,/LedMatrix/LedRC3*%
X156520000Y-130480000D03*
%TO.P,D30,2*%
%TO.N,/LedMatrix/LedR5*%
X153980000Y-130480000D03*
D18*
%TO.P,D30,1*%
%TO.N,/LedMatrix/LedGC3*%
X151440000Y-130480000D03*
%TD*%
D17*
%TO.P,D29,3*%
%TO.N,/LedMatrix/LedRC3*%
X156520000Y-110480000D03*
%TO.P,D29,2*%
%TO.N,/LedMatrix/LedR4*%
X153980000Y-110480000D03*
D18*
%TO.P,D29,1*%
%TO.N,/LedMatrix/LedGC3*%
X151440000Y-110480000D03*
%TD*%
D17*
%TO.P,D28,3*%
%TO.N,/LedMatrix/LedRC3*%
X156520000Y-90480000D03*
%TO.P,D28,2*%
%TO.N,/LedMatrix/LedR3*%
X153980000Y-90480000D03*
D18*
%TO.P,D28,1*%
%TO.N,/LedMatrix/LedGC3*%
X151440000Y-90480000D03*
%TD*%
D17*
%TO.P,D26,3*%
%TO.N,/LedMatrix/LedRC3*%
X156520000Y-50480000D03*
%TO.P,D26,2*%
%TO.N,/LedMatrix/LedR1*%
X153980000Y-50480000D03*
D18*
%TO.P,D26,1*%
%TO.N,/LedMatrix/LedGC3*%
X151440000Y-50480000D03*
%TD*%
D17*
%TO.P,D25,3*%
%TO.N,/LedMatrix/LedRC3*%
X156520000Y-30480000D03*
%TO.P,D25,2*%
%TO.N,/LedMatrix/LedR0*%
X153980000Y-30480000D03*
D18*
%TO.P,D25,1*%
%TO.N,/LedMatrix/LedGC3*%
X151440000Y-30480000D03*
%TD*%
D17*
%TO.P,D24,3*%
%TO.N,/LedMatrix/LedRC2*%
X136520000Y-170480000D03*
%TO.P,D24,2*%
%TO.N,/LedMatrix/LedR7*%
X133980000Y-170480000D03*
D18*
%TO.P,D24,1*%
%TO.N,/LedMatrix/LedGC2*%
X131440000Y-170480000D03*
%TD*%
D17*
%TO.P,D23,3*%
%TO.N,/LedMatrix/LedRC2*%
X136520000Y-150480000D03*
%TO.P,D23,2*%
%TO.N,/LedMatrix/LedR6*%
X133980000Y-150480000D03*
D18*
%TO.P,D23,1*%
%TO.N,/LedMatrix/LedGC2*%
X131440000Y-150480000D03*
%TD*%
D17*
%TO.P,D22,3*%
%TO.N,/LedMatrix/LedRC2*%
X136520000Y-130480000D03*
%TO.P,D22,2*%
%TO.N,/LedMatrix/LedR5*%
X133980000Y-130480000D03*
D18*
%TO.P,D22,1*%
%TO.N,/LedMatrix/LedGC2*%
X131440000Y-130480000D03*
%TD*%
D17*
%TO.P,D21,3*%
%TO.N,/LedMatrix/LedRC2*%
X136520000Y-110480000D03*
%TO.P,D21,2*%
%TO.N,/LedMatrix/LedR4*%
X133980000Y-110480000D03*
D18*
%TO.P,D21,1*%
%TO.N,/LedMatrix/LedGC2*%
X131440000Y-110480000D03*
%TD*%
D17*
%TO.P,D20,3*%
%TO.N,/LedMatrix/LedRC2*%
X136520000Y-90480000D03*
%TO.P,D20,2*%
%TO.N,/LedMatrix/LedR3*%
X133980000Y-90480000D03*
D18*
%TO.P,D20,1*%
%TO.N,/LedMatrix/LedGC2*%
X131440000Y-90480000D03*
%TD*%
D17*
%TO.P,D18,3*%
%TO.N,/LedMatrix/LedRC2*%
X136520000Y-50480000D03*
%TO.P,D18,2*%
%TO.N,/LedMatrix/LedR1*%
X133980000Y-50480000D03*
D18*
%TO.P,D18,1*%
%TO.N,/LedMatrix/LedGC2*%
X131440000Y-50480000D03*
%TD*%
D17*
%TO.P,D17,3*%
%TO.N,/LedMatrix/LedRC2*%
X136520000Y-30480000D03*
%TO.P,D17,2*%
%TO.N,/LedMatrix/LedR0*%
X133980000Y-30480000D03*
D18*
%TO.P,D17,1*%
%TO.N,/LedMatrix/LedGC2*%
X131440000Y-30480000D03*
%TD*%
D17*
%TO.P,D16,3*%
%TO.N,/LedMatrix/LedRC1*%
X116520000Y-170480000D03*
%TO.P,D16,2*%
%TO.N,/LedMatrix/LedR7*%
X113980000Y-170480000D03*
D18*
%TO.P,D16,1*%
%TO.N,/LedMatrix/LedGC1*%
X111440000Y-170480000D03*
%TD*%
D17*
%TO.P,D15,3*%
%TO.N,/LedMatrix/LedRC1*%
X116520000Y-150480000D03*
%TO.P,D15,2*%
%TO.N,/LedMatrix/LedR6*%
X113980000Y-150480000D03*
D18*
%TO.P,D15,1*%
%TO.N,/LedMatrix/LedGC1*%
X111440000Y-150480000D03*
%TD*%
D17*
%TO.P,D14,3*%
%TO.N,/LedMatrix/LedRC1*%
X116520000Y-130480000D03*
%TO.P,D14,2*%
%TO.N,/LedMatrix/LedR5*%
X113980000Y-130480000D03*
D18*
%TO.P,D14,1*%
%TO.N,/LedMatrix/LedGC1*%
X111440000Y-130480000D03*
%TD*%
D17*
%TO.P,D13,3*%
%TO.N,/LedMatrix/LedRC1*%
X116520000Y-110480000D03*
%TO.P,D13,2*%
%TO.N,/LedMatrix/LedR4*%
X113980000Y-110480000D03*
D18*
%TO.P,D13,1*%
%TO.N,/LedMatrix/LedGC1*%
X111440000Y-110480000D03*
%TD*%
D17*
%TO.P,D12,3*%
%TO.N,/LedMatrix/LedRC1*%
X116520000Y-90480000D03*
%TO.P,D12,2*%
%TO.N,/LedMatrix/LedR3*%
X113980000Y-90480000D03*
D18*
%TO.P,D12,1*%
%TO.N,/LedMatrix/LedGC1*%
X111440000Y-90480000D03*
%TD*%
D17*
%TO.P,D11,3*%
%TO.N,/LedMatrix/LedRC1*%
X116520000Y-70480000D03*
%TO.P,D11,2*%
%TO.N,/LedMatrix/LedR2*%
X113980000Y-70480000D03*
D18*
%TO.P,D11,1*%
%TO.N,/LedMatrix/LedGC1*%
X111440000Y-70480000D03*
%TD*%
D17*
%TO.P,D10,3*%
%TO.N,/LedMatrix/LedRC1*%
X116520000Y-50480000D03*
%TO.P,D10,2*%
%TO.N,/LedMatrix/LedR1*%
X113980000Y-50480000D03*
D18*
%TO.P,D10,1*%
%TO.N,/LedMatrix/LedGC1*%
X111440000Y-50480000D03*
%TD*%
D17*
%TO.P,D9,3*%
%TO.N,/LedMatrix/LedRC1*%
X116520000Y-30480000D03*
%TO.P,D9,2*%
%TO.N,/LedMatrix/LedR0*%
X113980000Y-30480000D03*
D18*
%TO.P,D9,1*%
%TO.N,/LedMatrix/LedGC1*%
X111440000Y-30480000D03*
%TD*%
D17*
%TO.P,D8,3*%
%TO.N,/LedMatrix/LedRC0*%
X96520000Y-170480000D03*
%TO.P,D8,2*%
%TO.N,/LedMatrix/LedR7*%
X93980000Y-170480000D03*
D18*
%TO.P,D8,1*%
%TO.N,/LedMatrix/LedGC0*%
X91440000Y-170480000D03*
%TD*%
D17*
%TO.P,D7,3*%
%TO.N,/LedMatrix/LedRC0*%
X96520000Y-150480000D03*
%TO.P,D7,2*%
%TO.N,/LedMatrix/LedR6*%
X93980000Y-150480000D03*
D18*
%TO.P,D7,1*%
%TO.N,/LedMatrix/LedGC0*%
X91440000Y-150480000D03*
%TD*%
D17*
%TO.P,D6,3*%
%TO.N,/LedMatrix/LedRC0*%
X96520000Y-130480000D03*
%TO.P,D6,2*%
%TO.N,/LedMatrix/LedR5*%
X93980000Y-130480000D03*
D18*
%TO.P,D6,1*%
%TO.N,/LedMatrix/LedGC0*%
X91440000Y-130480000D03*
%TD*%
D17*
%TO.P,D5,3*%
%TO.N,/LedMatrix/LedRC0*%
X96520000Y-110480000D03*
%TO.P,D5,2*%
%TO.N,/LedMatrix/LedR4*%
X93980000Y-110480000D03*
D18*
%TO.P,D5,1*%
%TO.N,/LedMatrix/LedGC0*%
X91440000Y-110480000D03*
%TD*%
D17*
%TO.P,D4,3*%
%TO.N,/LedMatrix/LedRC0*%
X96520000Y-90480000D03*
%TO.P,D4,2*%
%TO.N,/LedMatrix/LedR3*%
X93980000Y-90480000D03*
D18*
%TO.P,D4,1*%
%TO.N,/LedMatrix/LedGC0*%
X91440000Y-90480000D03*
%TD*%
D17*
%TO.P,D3,3*%
%TO.N,/LedMatrix/LedRC0*%
X96520000Y-70480000D03*
%TO.P,D3,2*%
%TO.N,/LedMatrix/LedR2*%
X93980000Y-70480000D03*
D18*
%TO.P,D3,1*%
%TO.N,/LedMatrix/LedGC0*%
X91440000Y-70480000D03*
%TD*%
D17*
%TO.P,D2,3*%
%TO.N,/LedMatrix/LedRC0*%
X96520000Y-50480000D03*
%TO.P,D2,2*%
%TO.N,/LedMatrix/LedR1*%
X93980000Y-50480000D03*
D18*
%TO.P,D2,1*%
%TO.N,/LedMatrix/LedGC0*%
X91440000Y-50480000D03*
%TD*%
D17*
%TO.P,D1,3*%
%TO.N,/LedMatrix/LedRC0*%
X96520000Y-30480000D03*
%TO.P,D1,2*%
%TO.N,/LedMatrix/LedR0*%
X93980000Y-30480000D03*
D18*
%TO.P,D1,1*%
%TO.N,/LedMatrix/LedGC0*%
X91440000Y-30480000D03*
%TD*%
D21*
%TO.N,/LedMatrix/LedRC0*%
X96520000Y-163830000D03*
%TO.N,/LedMatrix/LedR0*%
X233680000Y-34290000D03*
X213360000Y-34290000D03*
X194310000Y-34290000D03*
X173990000Y-34290000D03*
X153670000Y-34290000D03*
X134620000Y-34290000D03*
X224790000Y-85090000D03*
X224790000Y-34290000D03*
X114300000Y-34290000D03*
X93980000Y-34290000D03*
%TO.N,/LedMatrix/LedGC0*%
X143510000Y-35560000D03*
X91440000Y-35560000D03*
X143510000Y-59690000D03*
%TO.N,/LedMatrix/LedR1*%
X233680000Y-54610000D03*
X213360000Y-54610000D03*
X194310000Y-54610000D03*
X173990000Y-54610000D03*
X154940000Y-54610000D03*
X114300000Y-54610000D03*
X93980000Y-54610000D03*
X153670000Y-67310000D03*
X134620000Y-67310000D03*
X134620000Y-54610000D03*
X222250000Y-87630000D03*
X222250000Y-54610000D03*
X144780000Y-67310000D03*
%TO.N,/LedMatrix/LedR2*%
X233680000Y-73660000D03*
X213360000Y-73660000D03*
X223520000Y-73660000D03*
X194310000Y-73660000D03*
X173990000Y-73660000D03*
X153670000Y-73660000D03*
X134620000Y-73660000D03*
X114300000Y-73660000D03*
X93980000Y-73660000D03*
X223520000Y-88900000D03*
X204470000Y-73660000D03*
%TO.N,/LedMatrix/LedR3*%
X233680000Y-105410000D03*
X233980000Y-94280000D03*
X229870000Y-105410000D03*
X219710000Y-105410000D03*
X213360000Y-105410000D03*
X194310000Y-105410000D03*
X173990000Y-95250000D03*
X193980000Y-95580000D03*
X153670000Y-95250000D03*
X133350000Y-95250000D03*
X114300000Y-95250000D03*
X93980000Y-95250000D03*
X163830000Y-99060000D03*
X173990000Y-99060000D03*
X224790000Y-92710000D03*
%TO.N,/LedMatrix/LedR4*%
X233680000Y-115570000D03*
X213360000Y-115570000D03*
X234950000Y-97790000D03*
X194310000Y-115570000D03*
X173990000Y-115570000D03*
X153670000Y-115570000D03*
X134620000Y-115570000D03*
X114300000Y-115570000D03*
X93980000Y-115570000D03*
X163830000Y-120650000D03*
X173990000Y-123190000D03*
%TO.N,/LedMatrix/LedR5*%
X233680000Y-135890000D03*
X213360000Y-135890000D03*
X222250000Y-111760000D03*
X222250000Y-135890000D03*
X194310000Y-135890000D03*
X173990000Y-135890000D03*
X153670000Y-135890000D03*
X133350000Y-135890000D03*
X114300000Y-135890000D03*
X93980000Y-135890000D03*
X146050000Y-135890000D03*
%TO.N,/LedMatrix/LedR6*%
X233680000Y-156210000D03*
X213360000Y-156210000D03*
X224790000Y-109220000D03*
X224790000Y-156210000D03*
X194310000Y-156210000D03*
X173990000Y-156210000D03*
X153670000Y-156210000D03*
X153670000Y-163830000D03*
X133350000Y-165100000D03*
X114300000Y-154940000D03*
X133350000Y-154940000D03*
X93980000Y-154940000D03*
X142240000Y-165100000D03*
%TO.N,/LedMatrix/LedR7*%
X233680000Y-166370000D03*
X213360000Y-166370000D03*
X227330000Y-106680000D03*
X227330000Y-166370000D03*
X194310000Y-166370000D03*
X173990000Y-166370000D03*
X153670000Y-166370000D03*
X134620000Y-166370000D03*
X114300000Y-166370000D03*
X93980000Y-166370000D03*
%TO.N,/LedMatrix/LedRC1*%
X116520000Y-162240000D03*
%TO.N,/LedMatrix/LedGC1*%
X111440000Y-39050000D03*
X144780000Y-54610000D03*
X144780000Y-38100000D03*
%TO.N,/LedMatrix/LedRC2*%
X136520000Y-160650000D03*
%TO.N,/LedMatrix/LedGC2*%
X146050000Y-53340000D03*
X146050000Y-76200000D03*
X131440000Y-75560000D03*
%TO.N,/LedMatrix/LedRC3*%
X156520000Y-148280000D03*
%TO.N,/LedMatrix/LedGC3*%
X151440000Y-61270000D03*
%TO.N,/LedMatrix/LedRC4*%
X176520000Y-146060000D03*
%TO.N,/LedMatrix/LedGC4*%
X171440000Y-45730000D03*
%TO.N,/LedMatrix/LedRC5*%
X196520000Y-143840000D03*
%TO.N,/LedMatrix/LedGC5*%
X191440000Y-42850000D03*
%TO.N,/LedMatrix/LedRC6*%
X216520000Y-140320000D03*
%TO.N,/LedMatrix/LedGC6*%
X211440000Y-39990000D03*
%TO.N,/LedMatrix/LedRC7*%
X236520000Y-138130000D03*
%TO.N,/LedMatrix/LedGC7*%
X231440000Y-37800000D03*
%TO.N,GND*%
X205740000Y-102870000D03*
X205740000Y-77470000D03*
X205740000Y-158750000D03*
X205740000Y-62230000D03*
X148590000Y-162560000D03*
X144780000Y-148590000D03*
X71120000Y-152400000D03*
X162560000Y-116840000D03*
X162560000Y-104140000D03*
X107950000Y-33020000D03*
X247650000Y-33020000D03*
X227330000Y-33020000D03*
X208280000Y-33020000D03*
X187960000Y-33020000D03*
X167640000Y-33020000D03*
X148590000Y-33020000D03*
X128270000Y-33020000D03*
X67310000Y-33020000D03*
X67310000Y-55880000D03*
%TO.N,VCC*%
X125730000Y-85090000D03*
X125730000Y-44450000D03*
X125730000Y-60960000D03*
X184150000Y-99060000D03*
X184150000Y-85090000D03*
X125730000Y-156210000D03*
X125730000Y-138430000D03*
%TO.N,Net-(U4-Pad14)*%
X123190000Y-46990000D03*
X123190000Y-158750000D03*
%TO.N,SHCLK*%
X138430000Y-57150000D03*
X138430000Y-153670000D03*
X138430000Y-97790000D03*
%TO.N,RCLK*%
X119380000Y-157480000D03*
X119380000Y-96520000D03*
%TO.N,LCLK*%
X120650000Y-57150000D03*
X121920000Y-147320000D03*
X121920000Y-158750000D03*
X121920000Y-80010000D03*
X118110000Y-80010000D03*
%TO.N,RLDS*%
X106680000Y-162560000D03*
X106680000Y-146050000D03*
X144780000Y-87630000D03*
X143510000Y-146050000D03*
%TO.N,SWSL*%
X68580000Y-99060000D03*
X62230000Y-99060000D03*
%TO.N,SWCLK*%
X68580000Y-105410000D03*
X63500000Y-105410000D03*
%TO.N,SWDAT*%
X68580000Y-137160000D03*
X63500000Y-137160000D03*
%TO.N,SCL*%
X76200000Y-132080000D03*
%TO.N,SDA*%
X78740000Y-134620000D03*
%TO.N,3V3*%
X73660000Y-152400000D03*
%TO.N,/SwitchMatrix/SwC0*%
X100330000Y-114300000D03*
X76200000Y-76200000D03*
X100330000Y-76200000D03*
%TO.N,/SwitchMatrix/SwC1*%
X120650000Y-113030000D03*
X80010000Y-88900000D03*
X120330000Y-87310000D03*
%TO.N,/SwitchMatrix/SwC2*%
X142240000Y-107950000D03*
X66040000Y-41910000D03*
X139806799Y-42016799D03*
%TO.N,/SwitchMatrix/SwC3*%
X157745001Y-106945001D03*
X86360000Y-74930000D03*
X160330000Y-77780000D03*
%TO.N,/SwitchMatrix/SwC4*%
X180340000Y-106680000D03*
X88900000Y-86360000D03*
X180340000Y-86360000D03*
%TO.N,/SwitchMatrix/SwC5*%
X201930000Y-107950000D03*
X80010000Y-68580000D03*
X198120000Y-68580000D03*
%TO.N,Net-(D107-Pad2)*%
X204470000Y-78740000D03*
X208280000Y-78740000D03*
%TO.N,Net-(D108-Pad2)*%
X204470000Y-109220000D03*
X209550000Y-109220000D03*
%TO.N,/SwitchMatrix/SwC6*%
X218440000Y-111760000D03*
%TO.N,Net-(D116-Pad2)*%
X223520000Y-124460000D03*
X226060000Y-124460000D03*
%TO.N,/SwitchMatrix/SwC7*%
X240030000Y-114300000D03*
%TO.N,Net-(D129-Pad2)*%
X52070000Y-82550000D03*
X54610000Y-82550000D03*
%TO.N,Net-(D131-Pad2)*%
X52070000Y-40640000D03*
X57150000Y-40640000D03*
%TO.N,SWRCP*%
X53340000Y-147320000D03*
%TD*%
D22*
%TO.N,/LedMatrix/LedRC0*%
X148590000Y-156210000D02*
X146050000Y-158750000D01*
X146050000Y-158750000D02*
X146050000Y-163830000D01*
X146050000Y-163830000D02*
X96520000Y-163830000D01*
%TO.N,/LedMatrix/LedR0*%
X194310000Y-34290000D02*
X213360000Y-34290000D01*
X173990000Y-34290000D02*
X194310000Y-34290000D01*
X153670000Y-34290000D02*
X173990000Y-34290000D01*
X134620000Y-34290000D02*
X153670000Y-34290000D01*
X227330000Y-85090000D02*
X224790000Y-85090000D01*
X233680000Y-34290000D02*
X224790000Y-34290000D01*
X224790000Y-34290000D02*
X213360000Y-34290000D01*
X114300000Y-34290000D02*
X134620000Y-34290000D01*
X93980000Y-34290000D02*
X114300000Y-34290000D01*
%TO.N,/LedMatrix/LedGC0*%
X143510000Y-35560000D02*
X91440000Y-35560000D01*
X147320000Y-59690000D02*
X143510000Y-59690000D01*
X148590000Y-59690000D02*
X147320000Y-59690000D01*
%TO.N,/LedMatrix/LedR1*%
X194310000Y-54610000D02*
X213360000Y-54610000D01*
X173990000Y-54610000D02*
X194310000Y-54610000D01*
X154940000Y-54610000D02*
X173990000Y-54610000D01*
X233680000Y-54610000D02*
X229870000Y-54610000D01*
X229870000Y-54610000D02*
X213360000Y-54610000D01*
X114300000Y-54610000D02*
X134620000Y-54610000D01*
X93980000Y-54610000D02*
X114300000Y-54610000D01*
X227330000Y-87630000D02*
X222250000Y-87630000D01*
X153670000Y-67310000D02*
X144780000Y-67310000D01*
X144780000Y-67310000D02*
X134620000Y-67310000D01*
%TO.N,/LedMatrix/LedR2*%
X222250000Y-73660000D02*
X213360000Y-73660000D01*
X233680000Y-73660000D02*
X222250000Y-73660000D01*
X173990000Y-73660000D02*
X194310000Y-73660000D01*
X153670000Y-73660000D02*
X173990000Y-73660000D01*
X134620000Y-73660000D02*
X153670000Y-73660000D01*
X114300000Y-73660000D02*
X134620000Y-73660000D01*
X93980000Y-73660000D02*
X114300000Y-73660000D01*
X227330000Y-90170000D02*
X224790000Y-90170000D01*
X224790000Y-90170000D02*
X223520000Y-88900000D01*
X194310000Y-73660000D02*
X204470000Y-73660000D01*
X204470000Y-73660000D02*
X213360000Y-73660000D01*
%TO.N,/LedMatrix/LedR3*%
X230085393Y-94280000D02*
X233980000Y-94280000D01*
X228515393Y-92710000D02*
X230085393Y-94280000D01*
X227330000Y-92710000D02*
X228515393Y-92710000D01*
X233680000Y-105410000D02*
X229870000Y-105410000D01*
X194310000Y-105410000D02*
X213360000Y-105410000D01*
X173990000Y-95250000D02*
X193650000Y-95250000D01*
X193650000Y-95250000D02*
X193980000Y-95580000D01*
X173990000Y-95250000D02*
X153670000Y-95250000D01*
X153670000Y-95250000D02*
X133350000Y-95250000D01*
X133350000Y-95250000D02*
X114300000Y-95250000D01*
X114300000Y-95250000D02*
X93980000Y-95250000D01*
X163830000Y-99060000D02*
X173990000Y-99060000D01*
X219710000Y-105410000D02*
X213360000Y-105410000D01*
X204470000Y-113030000D02*
X219710000Y-113030000D01*
X219710000Y-113030000D02*
X219710000Y-105410000D01*
X224790000Y-92710000D02*
X227330000Y-92710000D01*
%TO.N,/LedMatrix/LedR4*%
X233680000Y-115570000D02*
X213360000Y-115570000D01*
X232410000Y-97790000D02*
X234950000Y-97790000D01*
X227330000Y-95250000D02*
X229870000Y-95250000D01*
X229870000Y-95250000D02*
X232410000Y-97790000D01*
X213360000Y-115570000D02*
X194310000Y-115570000D01*
X194310000Y-115570000D02*
X173990000Y-115570000D01*
X173990000Y-115570000D02*
X153670000Y-115570000D01*
X153670000Y-115570000D02*
X134620000Y-115570000D01*
X134620000Y-115570000D02*
X114300000Y-115570000D01*
X114300000Y-115570000D02*
X93980000Y-115570000D01*
X163830000Y-120650000D02*
X171450000Y-120650000D01*
X171450000Y-120650000D02*
X173990000Y-123190000D01*
%TO.N,/LedMatrix/LedR5*%
X233680000Y-135890000D02*
X213360000Y-135890000D01*
X213360000Y-135890000D02*
X194310000Y-135890000D01*
X194310000Y-135890000D02*
X173990000Y-135890000D01*
X173990000Y-135890000D02*
X153670000Y-135890000D01*
X133350000Y-135890000D02*
X114300000Y-135890000D01*
X114300000Y-135890000D02*
X93980000Y-135890000D01*
X227330000Y-97790000D02*
X222250000Y-97790000D01*
X222250000Y-97790000D02*
X222250000Y-111760000D01*
X153670000Y-135890000D02*
X146050000Y-135890000D01*
X146050000Y-135890000D02*
X133350000Y-135890000D01*
%TO.N,/LedMatrix/LedR6*%
X233680000Y-156210000D02*
X229870000Y-156210000D01*
X227330000Y-100330000D02*
X224790000Y-100330000D01*
X224790000Y-100330000D02*
X224790000Y-109220000D01*
X229870000Y-156210000D02*
X224790000Y-156210000D01*
X224790000Y-156210000D02*
X213360000Y-156210000D01*
X213360000Y-156210000D02*
X194310000Y-156210000D01*
X194310000Y-156210000D02*
X173990000Y-156210000D01*
X173990000Y-156210000D02*
X153670000Y-156210000D01*
X153670000Y-163830000D02*
X152400000Y-165100000D01*
X114300000Y-154940000D02*
X133350000Y-154940000D01*
X114300000Y-154940000D02*
X93980000Y-154940000D01*
X152400000Y-165100000D02*
X142240000Y-165100000D01*
X142240000Y-165100000D02*
X133350000Y-165100000D01*
%TO.N,/LedMatrix/LedR7*%
X233680000Y-166370000D02*
X228600000Y-166370000D01*
X228600000Y-166370000D02*
X227330000Y-166370000D01*
X227330000Y-166370000D02*
X213360000Y-166370000D01*
X227330000Y-102870000D02*
X227330000Y-106680000D01*
X213360000Y-166370000D02*
X194310000Y-166370000D01*
X194310000Y-166370000D02*
X173990000Y-166370000D01*
X173990000Y-166370000D02*
X153670000Y-166370000D01*
X153670000Y-166370000D02*
X134620000Y-166370000D01*
X134620000Y-166370000D02*
X114300000Y-166370000D01*
X114300000Y-166370000D02*
X93980000Y-166370000D01*
%TO.N,/LedMatrix/LedRC1*%
X148590000Y-153670000D02*
X144780000Y-157480000D01*
X144780000Y-157480000D02*
X144780000Y-162560000D01*
X116840000Y-162560000D02*
X116520000Y-162240000D01*
X144780000Y-162560000D02*
X116840000Y-162560000D01*
%TO.N,/LedMatrix/LedGC1*%
X147320000Y-57150000D02*
X144780000Y-54610000D01*
X144780000Y-38100000D02*
X112390000Y-38100000D01*
X112390000Y-38100000D02*
X111440000Y-39050000D01*
X148590000Y-57150000D02*
X147320000Y-57150000D01*
%TO.N,/LedMatrix/LedRC2*%
X137160000Y-161290000D02*
X136520000Y-160650000D01*
X143510000Y-151130000D02*
X143510000Y-161290000D01*
X143510000Y-161290000D02*
X137160000Y-161290000D01*
X143510000Y-151130000D02*
X148590000Y-151130000D01*
%TO.N,/LedMatrix/LedGC2*%
X148590000Y-54610000D02*
X147320000Y-54610000D01*
X147320000Y-54610000D02*
X146050000Y-53340000D01*
X132080000Y-76200000D02*
X131440000Y-75560000D01*
X146050000Y-76200000D02*
X132080000Y-76200000D01*
%TO.N,/LedMatrix/LedRC3*%
X148590000Y-148590000D02*
X156210000Y-148590000D01*
X156210000Y-148590000D02*
X156520000Y-148280000D01*
%TO.N,/LedMatrix/LedGC3*%
X148590000Y-52070000D02*
X151440000Y-54920000D01*
X151440000Y-54920000D02*
X151440000Y-61270000D01*
%TO.N,/LedMatrix/LedRC4*%
X148590000Y-146050000D02*
X176510000Y-146050000D01*
X176510000Y-146050000D02*
X176520000Y-146060000D01*
%TO.N,/LedMatrix/LedGC4*%
X148590000Y-49530000D02*
X152400000Y-45720000D01*
X171430000Y-45720000D02*
X171440000Y-45730000D01*
X152400000Y-45720000D02*
X171430000Y-45720000D01*
%TO.N,/LedMatrix/LedRC5*%
X196190000Y-143510000D02*
X196520000Y-143840000D01*
X148590000Y-143510000D02*
X196190000Y-143510000D01*
%TO.N,/LedMatrix/LedGC5*%
X148590000Y-46990000D02*
X149860000Y-46990000D01*
X154000000Y-42850000D02*
X191440000Y-42850000D01*
X149860000Y-46990000D02*
X154000000Y-42850000D01*
%TO.N,/LedMatrix/LedRC6*%
X214600000Y-142240000D02*
X216520000Y-140320000D01*
X148590000Y-140970000D02*
X149860000Y-142240000D01*
X149860000Y-142240000D02*
X214600000Y-142240000D01*
%TO.N,/LedMatrix/LedGC6*%
X151130000Y-38100000D02*
X209550000Y-38100000D01*
X148590000Y-44450000D02*
X149860000Y-44450000D01*
X209550000Y-38100000D02*
X211440000Y-39990000D01*
X151130000Y-43180000D02*
X151130000Y-38100000D01*
X149860000Y-44450000D02*
X151130000Y-43180000D01*
%TO.N,/LedMatrix/LedRC7*%
X146350000Y-138130000D02*
X236520000Y-138130000D01*
X140970000Y-143510000D02*
X146350000Y-138130000D01*
%TO.N,/LedMatrix/LedGC7*%
X140970000Y-46990000D02*
X152400000Y-35560000D01*
X229200000Y-35560000D02*
X231440000Y-37800000D01*
X152400000Y-35560000D02*
X229200000Y-35560000D01*
%TO.N,Net-(U1-Pad1)*%
X217170000Y-85090000D02*
X219710000Y-87630000D01*
X208280000Y-85090000D02*
X217170000Y-85090000D01*
%TO.N,Net-(U1-Pad2)*%
X217170000Y-87630000D02*
X219710000Y-90170000D01*
X208280000Y-87630000D02*
X217170000Y-87630000D01*
%TO.N,Net-(U1-Pad3)*%
X208280000Y-90170000D02*
X210820000Y-92710000D01*
X210820000Y-92710000D02*
X219710000Y-92710000D01*
%TO.N,Net-(U1-Pad4)*%
X210820000Y-95250000D02*
X219710000Y-95250000D01*
X208280000Y-92710000D02*
X210820000Y-95250000D01*
%TO.N,Net-(U1-Pad5)*%
X208280000Y-95250000D02*
X210820000Y-97790000D01*
X210820000Y-97790000D02*
X219710000Y-97790000D01*
%TO.N,Net-(U1-Pad6)*%
X210820000Y-100330000D02*
X219710000Y-100330000D01*
X208280000Y-97790000D02*
X210820000Y-100330000D01*
%TO.N,Net-(U1-Pad7)*%
X208280000Y-100330000D02*
X210820000Y-102870000D01*
X210820000Y-102870000D02*
X219710000Y-102870000D01*
X208280000Y-100330000D02*
X209550000Y-100330000D01*
%TO.N,GND*%
X208280000Y-102870000D02*
X205740000Y-102870000D01*
X205740000Y-77470000D02*
X228600000Y-77470000D01*
X205740000Y-158750000D02*
X148590000Y-158750000D01*
X205740000Y-62230000D02*
X148590000Y-62230000D01*
X140151538Y-52070000D02*
X140970000Y-52070000D01*
X139700000Y-52070000D02*
X140970000Y-52070000D01*
X135890000Y-55880000D02*
X139700000Y-52070000D01*
X148590000Y-158750000D02*
X148590000Y-162560000D01*
X144780000Y-148590000D02*
X140970000Y-148590000D01*
X203200000Y-92710000D02*
X200660000Y-92710000D01*
X205740000Y-102870000D02*
X203200000Y-100330000D01*
X203200000Y-100330000D02*
X203200000Y-92710000D01*
X67310000Y-152400000D02*
X67240000Y-152330000D01*
X59550000Y-160020000D02*
X67240000Y-152330000D01*
X71120000Y-152400000D02*
X67310000Y-152400000D01*
X67240000Y-152330000D02*
X67310000Y-152260000D01*
X106680000Y-66040000D02*
X106680000Y-55880000D01*
X142240000Y-66040000D02*
X106680000Y-66040000D01*
X148590000Y-62230000D02*
X146050000Y-62230000D01*
X146050000Y-62230000D02*
X142240000Y-66040000D01*
X162560000Y-119380000D02*
X160020000Y-116840000D01*
X167640000Y-119380000D02*
X162560000Y-119380000D01*
X160020000Y-116840000D02*
X162560000Y-116840000D01*
X162560000Y-104140000D02*
X160020000Y-104140000D01*
X160020000Y-116840000D02*
X67310000Y-116840000D01*
X67310000Y-152260000D02*
X67310000Y-116840000D01*
X227330000Y-82550000D02*
X228600000Y-81280000D01*
X228600000Y-81280000D02*
X228600000Y-77470000D01*
X187960000Y-33020000D02*
X247650000Y-33020000D01*
X167640000Y-33020000D02*
X187960000Y-33020000D01*
X107950000Y-33020000D02*
X148590000Y-33020000D01*
X148590000Y-33020000D02*
X167640000Y-33020000D01*
X107950000Y-33020000D02*
X67310000Y-33020000D01*
X67310000Y-55880000D02*
X135890000Y-55880000D01*
X67310000Y-58420000D02*
X67310000Y-55880000D01*
X67310000Y-58420000D02*
X67310000Y-56699990D01*
X67310000Y-116840000D02*
X67310000Y-58420000D01*
%TO.N,Net-(U1-Pad15)*%
X201930000Y-87630000D02*
X200660000Y-87630000D01*
X219710000Y-85090000D02*
X215900000Y-81280000D01*
X208280000Y-81280000D02*
X201930000Y-87630000D01*
X215900000Y-81280000D02*
X208280000Y-81280000D01*
%TO.N,VCC*%
X205740000Y-80010000D02*
X200660000Y-85090000D01*
X219710000Y-82550000D02*
X217170000Y-80010000D01*
X217170000Y-80010000D02*
X205740000Y-80010000D01*
X200660000Y-85090000D02*
X125730000Y-85090000D01*
X125730000Y-44450000D02*
X140970000Y-44450000D01*
X140970000Y-156210000D02*
X125730000Y-156210000D01*
X138430000Y-138430000D02*
X125730000Y-138430000D01*
X140970000Y-140970000D02*
X138430000Y-138430000D01*
X128270000Y-58420000D02*
X125730000Y-60960000D01*
X140970000Y-59690000D02*
X139700000Y-58420000D01*
X139700000Y-58420000D02*
X128270000Y-58420000D01*
X200660000Y-100330000D02*
X199390000Y-99060000D01*
X199390000Y-99060000D02*
X185420000Y-99060000D01*
X185420000Y-99060000D02*
X184150000Y-99060000D01*
X161396799Y-102976799D02*
X184043201Y-102976799D01*
X160020000Y-101600000D02*
X161396799Y-102976799D01*
X184150000Y-102870000D02*
X184150000Y-99060000D01*
X184043201Y-102976799D02*
X184150000Y-102870000D01*
X107950000Y-44450000D02*
X125730000Y-44450000D01*
X64770000Y-152260000D02*
X64770000Y-44450000D01*
X64770000Y-44450000D02*
X101600000Y-44450000D01*
X101600000Y-44450000D02*
X102870000Y-43180000D01*
X59550000Y-157480000D02*
X64770000Y-152260000D01*
X102870000Y-43180000D02*
X106680000Y-43180000D01*
X106680000Y-43180000D02*
X107950000Y-44450000D01*
%TO.N,Net-(U4-Pad14)*%
X140970000Y-49530000D02*
X138430000Y-46990000D01*
X138430000Y-46990000D02*
X123190000Y-46990000D01*
X123190000Y-158750000D02*
X140970000Y-158750000D01*
%TO.N,SHCLK*%
X140970000Y-57150000D02*
X138430000Y-57150000D01*
X138430000Y-153670000D02*
X140970000Y-153670000D01*
X83820000Y-153670000D02*
X82550000Y-154940000D01*
X138430000Y-153670000D02*
X83820000Y-153670000D01*
X200660000Y-97790000D02*
X138430000Y-97790000D01*
%TO.N,RCLK*%
X82550000Y-157480000D02*
X119380000Y-157480000D01*
X199390000Y-96520000D02*
X200660000Y-95250000D01*
X119380000Y-96520000D02*
X199390000Y-96520000D01*
%TO.N,LCLK*%
X137244607Y-57150000D02*
X120650000Y-57150000D01*
X140970000Y-54610000D02*
X139784607Y-54610000D01*
X139784607Y-54610000D02*
X137244607Y-57150000D01*
X137160000Y-147320000D02*
X140970000Y-151130000D01*
X121920000Y-147320000D02*
X137160000Y-147320000D01*
X82550000Y-160020000D02*
X83820000Y-158750000D01*
X83820000Y-158750000D02*
X116840000Y-158750000D01*
X116840000Y-158750000D02*
X121920000Y-158750000D01*
X121920000Y-80010000D02*
X118110000Y-80010000D01*
%TO.N,RLDS*%
X82550000Y-162560000D02*
X106680000Y-162560000D01*
X106680000Y-146050000D02*
X140970000Y-146050000D01*
X198120000Y-87630000D02*
X200660000Y-90170000D01*
X144780000Y-87630000D02*
X198120000Y-87630000D01*
X140970000Y-146050000D02*
X143510000Y-146050000D01*
%TO.N,SWSL*%
X167640000Y-101600000D02*
X162560000Y-101600000D01*
X162560000Y-101600000D02*
X160020000Y-99060000D01*
X160020000Y-99060000D02*
X68580000Y-99060000D01*
X62230000Y-99060000D02*
X62230000Y-128599002D01*
X62230000Y-128599002D02*
X62230000Y-132080000D01*
X59550000Y-132080000D02*
X62230000Y-132080000D01*
%TO.N,SWCLK*%
X167640000Y-104140000D02*
X166370000Y-105410000D01*
X166370000Y-105410000D02*
X68580000Y-105410000D01*
X63500000Y-134620000D02*
X59550000Y-134620000D01*
X63500000Y-105410000D02*
X63500000Y-134620000D01*
%TO.N,SWDAT*%
X160020000Y-119380000D02*
X158750000Y-119380000D01*
X158750000Y-119380000D02*
X74659992Y-119380000D01*
X74659992Y-119380000D02*
X68580000Y-119380000D01*
X68580000Y-119380000D02*
X68580000Y-137160000D01*
X63500000Y-137160000D02*
X59550000Y-137160000D01*
%TO.N,SCL*%
X76200000Y-132080000D02*
X82550000Y-132080000D01*
%TO.N,SDA*%
X78740000Y-134620000D02*
X82550000Y-134620000D01*
%TO.N,3V3*%
X73660000Y-152400000D02*
X82550000Y-152400000D01*
%TO.N,/SwitchMatrix/SwC0*%
X160020000Y-114300000D02*
X100330000Y-114300000D01*
X76200000Y-76200000D02*
X100330000Y-76200000D01*
%TO.N,/SwitchMatrix/SwC1*%
X160020000Y-111760000D02*
X158750000Y-113030000D01*
X158750000Y-113030000D02*
X120650000Y-113030000D01*
X118740000Y-88900000D02*
X120330000Y-87310000D01*
X80010000Y-88900000D02*
X118740000Y-88900000D01*
%TO.N,/SwitchMatrix/SwC2*%
X158750000Y-107950000D02*
X142240000Y-107950000D01*
X160020000Y-109220000D02*
X158750000Y-107950000D01*
X139700000Y-41910000D02*
X139806799Y-42016799D01*
X66040000Y-41910000D02*
X139700000Y-41910000D01*
%TO.N,/SwitchMatrix/SwC3*%
X160020000Y-106680000D02*
X158010002Y-106680000D01*
X158010002Y-106680000D02*
X157745001Y-106945001D01*
X113340000Y-77780000D02*
X160330000Y-77780000D01*
X110490000Y-74930000D02*
X113340000Y-77780000D01*
X86360000Y-74930000D02*
X110490000Y-74930000D01*
%TO.N,/SwitchMatrix/SwC4*%
X167640000Y-106680000D02*
X180340000Y-106680000D01*
X88900000Y-86360000D02*
X180340000Y-86360000D01*
%TO.N,/SwitchMatrix/SwC5*%
X167640000Y-109220000D02*
X168910000Y-109220000D01*
X168910000Y-109220000D02*
X170180000Y-107950000D01*
X170180000Y-107950000D02*
X201930000Y-107950000D01*
X80010000Y-68580000D02*
X198120000Y-68580000D01*
%TO.N,Net-(D107-Pad2)*%
X204470000Y-78740000D02*
X208280000Y-78740000D01*
%TO.N,Net-(D108-Pad2)*%
X204470000Y-109220000D02*
X209550000Y-109220000D01*
%TO.N,/SwitchMatrix/SwC6*%
X167640000Y-111760000D02*
X168910000Y-113030000D01*
X168910000Y-113030000D02*
X199390000Y-113030000D01*
X199390000Y-113030000D02*
X200660000Y-111760000D01*
X200660000Y-111760000D02*
X218440000Y-111760000D01*
%TO.N,Net-(D116-Pad2)*%
X223520000Y-124460000D02*
X226060000Y-124460000D01*
%TO.N,/SwitchMatrix/SwC7*%
X167640000Y-114300000D02*
X240030000Y-114300000D01*
%TO.N,Net-(D129-Pad2)*%
X52070000Y-82550000D02*
X54610000Y-82550000D01*
%TO.N,Net-(D131-Pad2)*%
X52070000Y-40640000D02*
X57150000Y-40640000D01*
%TO.N,SWRCP*%
X53340000Y-147320000D02*
X59550000Y-147320000D01*
%TD*%
M02*
