%TF.GenerationSoftware,KiCad,Pcbnew,5.1.6-c6e7f7d~86~ubuntu18.04.1*%
%TF.CreationDate,2020-06-02T23:01:44+03:00*%
%TF.ProjectId,chessboard_pcb,63686573-7362-46f6-9172-645f7063622e,rev?*%
%TF.SameCoordinates,Original*%
%TF.FileFunction,Legend,Bot*%
%TF.FilePolarity,Positive*%
%FSLAX46Y46*%
G04 Gerber Fmt 4.6, Leading zero omitted, Abs format (unit mm)*
G04 Created by KiCad (PCBNEW 5.1.6-c6e7f7d~86~ubuntu18.04.1) date 2020-06-02 23:01:44*
%MOMM*%
%LPD*%
G01*
G04 APERTURE LIST*
%ADD10C,0.120000*%
%ADD11C,0.152400*%
%ADD12C,0.100000*%
%ADD13C,0.150000*%
%ADD14C,0.015000*%
G04 APERTURE END LIST*
D10*
%TO.C,J2*%
X58220000Y-161350000D02*
X59550000Y-161350000D01*
X58220000Y-160020000D02*
X58220000Y-161350000D01*
X58220000Y-158750000D02*
X60880000Y-158750000D01*
X60880000Y-158750000D02*
X60880000Y-120590000D01*
X58220000Y-158750000D02*
X58220000Y-120590000D01*
X58220000Y-120590000D02*
X60880000Y-120590000D01*
%TO.C,J1*%
X81220000Y-171510000D02*
X82550000Y-171510000D01*
X81220000Y-170180000D02*
X81220000Y-171510000D01*
X81220000Y-168910000D02*
X83880000Y-168910000D01*
X83880000Y-168910000D02*
X83880000Y-120590000D01*
X81220000Y-168910000D02*
X81220000Y-120590000D01*
X81220000Y-120590000D02*
X83880000Y-120590000D01*
D11*
%TO.C,U5*%
X145084800Y-140106400D02*
X147269200Y-140106400D01*
X144475200Y-140106400D02*
X145084800Y-140106400D01*
X141960600Y-140106400D02*
X144475200Y-140106400D01*
X147599400Y-159613600D02*
X141960600Y-159613600D01*
X144475200Y-140106400D02*
G75*
G03*
X145084800Y-140106400I304800J0D01*
G01*
%TO.C,U4*%
X145084800Y-43586400D02*
X147269200Y-43586400D01*
X144475200Y-43586400D02*
X145084800Y-43586400D01*
X141960600Y-43586400D02*
X144475200Y-43586400D01*
X147599400Y-63093600D02*
X141960600Y-63093600D01*
X144475200Y-43586400D02*
G75*
G03*
X145084800Y-43586400I304800J0D01*
G01*
%TO.C,U3*%
X223215200Y-104140000D02*
X220853000Y-104140000D01*
X223824800Y-104140000D02*
X223215200Y-104140000D01*
X226695000Y-104140000D02*
X223824800Y-104140000D01*
X220345000Y-81280000D02*
X226695000Y-81280000D01*
D12*
X223824800Y-104140000D02*
G75*
G03*
X223215200Y-104140000I-304800J0D01*
G01*
D11*
%TO.C,U2*%
X164134800Y-100736400D02*
X166319200Y-100736400D01*
X163525200Y-100736400D02*
X164134800Y-100736400D01*
X161010600Y-100736400D02*
X163525200Y-100736400D01*
X166649400Y-120243600D02*
X161010600Y-120243600D01*
X163525200Y-100736400D02*
G75*
G03*
X164134800Y-100736400I304800J0D01*
G01*
%TO.C,U1*%
X204774800Y-84226400D02*
X206959200Y-84226400D01*
X204165200Y-84226400D02*
X204774800Y-84226400D01*
X201650600Y-84226400D02*
X204165200Y-84226400D01*
X207289400Y-103733600D02*
X201650600Y-103733600D01*
X204165200Y-84226400D02*
G75*
G03*
X204774800Y-84226400I304800J0D01*
G01*
%TO.C,J2*%
D13*
X59883333Y-161802380D02*
X59883333Y-162516666D01*
X59930952Y-162659523D01*
X60026190Y-162754761D01*
X60169047Y-162802380D01*
X60264285Y-162802380D01*
X59454761Y-161897619D02*
X59407142Y-161850000D01*
X59311904Y-161802380D01*
X59073809Y-161802380D01*
X58978571Y-161850000D01*
X58930952Y-161897619D01*
X58883333Y-161992857D01*
X58883333Y-162088095D01*
X58930952Y-162230952D01*
X59502380Y-162802380D01*
X58883333Y-162802380D01*
%TO.C,J1*%
X82883333Y-171962380D02*
X82883333Y-172676666D01*
X82930952Y-172819523D01*
X83026190Y-172914761D01*
X83169047Y-172962380D01*
X83264285Y-172962380D01*
X81883333Y-172962380D02*
X82454761Y-172962380D01*
X82169047Y-172962380D02*
X82169047Y-171962380D01*
X82264285Y-172105238D01*
X82359523Y-172200476D01*
X82454761Y-172248095D01*
%TO.C,U5*%
D14*
X145321106Y-135840866D02*
X145321106Y-137169333D01*
X145242961Y-137325623D01*
X145164816Y-137403768D01*
X145008526Y-137481913D01*
X144695945Y-137481913D01*
X144539655Y-137403768D01*
X144461510Y-137325623D01*
X144383365Y-137169333D01*
X144383365Y-135840866D01*
X142820463Y-135840866D02*
X143601914Y-135840866D01*
X143680059Y-136622317D01*
X143601914Y-136544172D01*
X143445624Y-136466027D01*
X143054898Y-136466027D01*
X142898608Y-136544172D01*
X142820463Y-136622317D01*
X142742318Y-136778607D01*
X142742318Y-137169333D01*
X142820463Y-137325623D01*
X142898608Y-137403768D01*
X143054898Y-137481913D01*
X143445624Y-137481913D01*
X143601914Y-137403768D01*
X143680059Y-137325623D01*
%TO.C,U4*%
X145321106Y-39320866D02*
X145321106Y-40649333D01*
X145242961Y-40805623D01*
X145164816Y-40883768D01*
X145008526Y-40961913D01*
X144695945Y-40961913D01*
X144539655Y-40883768D01*
X144461510Y-40805623D01*
X144383365Y-40649333D01*
X144383365Y-39320866D01*
X142898608Y-39867882D02*
X142898608Y-40961913D01*
X143289334Y-39242721D02*
X143680059Y-40414897D01*
X142664173Y-40414897D01*
%TO.C,U3*%
X225016406Y-105624347D02*
X225016406Y-106956064D01*
X224938070Y-107112737D01*
X224859733Y-107191073D01*
X224703061Y-107269410D01*
X224389715Y-107269410D01*
X224233043Y-107191073D01*
X224154706Y-107112737D01*
X224076370Y-106956064D01*
X224076370Y-105624347D01*
X223449679Y-105624347D02*
X222431307Y-105624347D01*
X222979661Y-106251037D01*
X222744652Y-106251037D01*
X222587980Y-106329374D01*
X222509643Y-106407710D01*
X222431307Y-106564383D01*
X222431307Y-106956064D01*
X222509643Y-107112737D01*
X222587980Y-107191073D01*
X222744652Y-107269410D01*
X223214670Y-107269410D01*
X223371343Y-107191073D01*
X223449679Y-107112737D01*
%TO.C,U2*%
X164371106Y-96470866D02*
X164371106Y-97799333D01*
X164292961Y-97955623D01*
X164214816Y-98033768D01*
X164058526Y-98111913D01*
X163745945Y-98111913D01*
X163589655Y-98033768D01*
X163511510Y-97955623D01*
X163433365Y-97799333D01*
X163433365Y-96470866D01*
X162730059Y-96627156D02*
X162651914Y-96549011D01*
X162495624Y-96470866D01*
X162104898Y-96470866D01*
X161948608Y-96549011D01*
X161870463Y-96627156D01*
X161792318Y-96783446D01*
X161792318Y-96939736D01*
X161870463Y-97174172D01*
X162808204Y-98111913D01*
X161792318Y-98111913D01*
%TO.C,U1*%
X205011106Y-79960866D02*
X205011106Y-81289333D01*
X204932961Y-81445623D01*
X204854816Y-81523768D01*
X204698526Y-81601913D01*
X204385945Y-81601913D01*
X204229655Y-81523768D01*
X204151510Y-81445623D01*
X204073365Y-81289333D01*
X204073365Y-79960866D01*
X202432318Y-81601913D02*
X203370059Y-81601913D01*
X202901188Y-81601913D02*
X202901188Y-79960866D01*
X203057479Y-80195301D01*
X203213769Y-80351591D01*
X203370059Y-80429736D01*
%TD*%
M02*
