<?xml version="1.0" standalone="no"?>
<!DOCTYPE svg PUBLIC "-//W3C//DTD SVG 1.1//EN" "http://www.w3.org/Graphics/SVG/1.1/DTD/svg11.dtd">
<svg width="169mm" height="169mm" viewBox="0 -169 169 169" xmlns="http://www.w3.org/2000/svg" version="1.1">
<title>OpenSCAD Model</title>
<path d="
M 168.4,-168.4 L 0,-168.4 L 0,-0 L 168.4,-0 z
M 159.975,-145.583 L 159.125,-146.201 L 158.8,-147.2 L 159.125,-148.199 L 159.975,-148.817 L 161.025,-148.817
 L 161.875,-148.199 L 162.2,-147.2 L 161.875,-146.201 L 161.025,-145.583 z
M 139.975,-145.583 L 139.125,-146.201 L 138.8,-147.2 L 139.125,-148.199 L 139.975,-148.817 L 141.025,-148.817
 L 141.875,-148.199 L 142.2,-147.2 L 141.875,-146.201 L 141.025,-145.583 z
M 119.975,-145.583 L 119.125,-146.201 L 118.8,-147.2 L 119.125,-148.199 L 119.975,-148.817 L 121.025,-148.817
 L 121.875,-148.199 L 122.2,-147.2 L 121.875,-146.201 L 121.025,-145.583 z
M 99.9747,-145.583 L 99.1247,-146.201 L 98.8,-147.2 L 99.1247,-148.199 L 99.9747,-148.817 L 101.025,-148.817
 L 101.875,-148.199 L 102.2,-147.2 L 101.875,-146.201 L 101.025,-145.583 z
M 79.9747,-145.583 L 79.1247,-146.201 L 78.8,-147.2 L 79.1247,-148.199 L 79.9747,-148.817 L 81.0253,-148.817
 L 81.8753,-148.199 L 82.2,-147.2 L 81.8753,-146.201 L 81.0253,-145.583 z
M 59.9747,-145.583 L 59.1247,-146.201 L 58.8,-147.2 L 59.1247,-148.199 L 59.9747,-148.817 L 61.0253,-148.817
 L 61.8753,-148.199 L 62.2,-147.2 L 61.8753,-146.201 L 61.0253,-145.583 z
M 39.9747,-145.583 L 39.1247,-146.201 L 38.8,-147.2 L 39.1247,-148.199 L 39.9747,-148.817 L 41.0253,-148.817
 L 41.8753,-148.199 L 42.2,-147.2 L 41.8753,-146.201 L 41.0253,-145.583 z
M 19.9747,-145.583 L 19.1247,-146.201 L 18.8,-147.2 L 19.1247,-148.199 L 19.9747,-148.817 L 21.0253,-148.817
 L 21.8753,-148.199 L 22.2,-147.2 L 21.8753,-146.201 L 21.0253,-145.583 z
M 119.975,-125.583 L 119.125,-126.201 L 118.8,-127.2 L 119.125,-128.199 L 119.975,-128.817 L 121.025,-128.817
 L 121.875,-128.199 L 122.2,-127.2 L 121.875,-126.201 L 121.025,-125.583 z
M 159.975,-125.583 L 159.125,-126.201 L 158.8,-127.2 L 159.125,-128.199 L 159.975,-128.817 L 161.025,-128.817
 L 161.875,-128.199 L 162.2,-127.2 L 161.875,-126.201 L 161.025,-125.583 z
M 139.975,-125.583 L 139.125,-126.201 L 138.8,-127.2 L 139.125,-128.199 L 139.975,-128.817 L 141.025,-128.817
 L 141.875,-128.199 L 142.2,-127.2 L 141.875,-126.201 L 141.025,-125.583 z
M 99.9747,-125.583 L 99.1247,-126.201 L 98.8,-127.2 L 99.1247,-128.199 L 99.9747,-128.817 L 101.025,-128.817
 L 101.875,-128.199 L 102.2,-127.2 L 101.875,-126.201 L 101.025,-125.583 z
M 79.9747,-125.583 L 79.1247,-126.201 L 78.8,-127.2 L 79.1247,-128.199 L 79.9747,-128.817 L 81.0253,-128.817
 L 81.8753,-128.199 L 82.2,-127.2 L 81.8753,-126.201 L 81.0253,-125.583 z
M 59.9747,-125.583 L 59.1247,-126.201 L 58.8,-127.2 L 59.1247,-128.199 L 59.9747,-128.817 L 61.0253,-128.817
 L 61.8753,-128.199 L 62.2,-127.2 L 61.8753,-126.201 L 61.0253,-125.583 z
M 39.9747,-125.583 L 39.1247,-126.201 L 38.8,-127.2 L 39.1247,-128.199 L 39.9747,-128.817 L 41.0253,-128.817
 L 41.8753,-128.199 L 42.2,-127.2 L 41.8753,-126.201 L 41.0253,-125.583 z
M 19.9747,-125.583 L 19.1247,-126.201 L 18.8,-127.2 L 19.1247,-128.199 L 19.9747,-128.817 L 21.0253,-128.817
 L 21.8753,-128.199 L 22.2,-127.2 L 21.8753,-126.201 L 21.0253,-125.583 z
M 19.9747,-105.583 L 19.1247,-106.201 L 18.8,-107.2 L 19.1247,-108.199 L 19.9747,-108.817 L 21.0253,-108.817
 L 21.8753,-108.199 L 22.2,-107.2 L 21.8753,-106.201 L 21.0253,-105.583 z
M 39.9747,-105.583 L 39.1247,-106.201 L 38.8,-107.2 L 39.1247,-108.199 L 39.9747,-108.817 L 41.0253,-108.817
 L 41.8753,-108.199 L 42.2,-107.2 L 41.8753,-106.201 L 41.0253,-105.583 z
M 59.9747,-105.583 L 59.1247,-106.201 L 58.8,-107.2 L 59.1247,-108.199 L 59.9747,-108.817 L 61.0253,-108.817
 L 61.8753,-108.199 L 62.2,-107.2 L 61.8753,-106.201 L 61.0253,-105.583 z
M 79.9747,-105.583 L 79.1247,-106.201 L 78.8,-107.2 L 79.1247,-108.199 L 79.9747,-108.817 L 81.0253,-108.817
 L 81.8753,-108.199 L 82.2,-107.2 L 81.8753,-106.201 L 81.0253,-105.583 z
M 99.9747,-105.583 L 99.1247,-106.201 L 98.8,-107.2 L 99.1247,-108.199 L 99.9747,-108.817 L 101.025,-108.817
 L 101.875,-108.199 L 102.2,-107.2 L 101.875,-106.201 L 101.025,-105.583 z
M 119.975,-105.583 L 119.125,-106.201 L 118.8,-107.2 L 119.125,-108.199 L 119.975,-108.817 L 121.025,-108.817
 L 121.875,-108.199 L 122.2,-107.2 L 121.875,-106.201 L 121.025,-105.583 z
M 139.975,-105.583 L 139.125,-106.201 L 138.8,-107.2 L 139.125,-108.199 L 139.975,-108.817 L 141.025,-108.817
 L 141.875,-108.199 L 142.2,-107.2 L 141.875,-106.201 L 141.025,-105.583 z
M 159.975,-105.583 L 159.125,-106.201 L 158.8,-107.2 L 159.125,-108.199 L 159.975,-108.817 L 161.025,-108.817
 L 161.875,-108.199 L 162.2,-107.2 L 161.875,-106.201 L 161.025,-105.583 z
M 159.975,-85.5832 L 159.125,-86.2008 L 158.8,-87.2 L 159.125,-88.1992 L 159.975,-88.8168 L 161.025,-88.8168
 L 161.875,-88.1992 L 162.2,-87.2 L 161.875,-86.2008 L 161.025,-85.5832 z
M 139.975,-85.5832 L 139.125,-86.2008 L 138.8,-87.2 L 139.125,-88.1992 L 139.975,-88.8168 L 141.025,-88.8168
 L 141.875,-88.1992 L 142.2,-87.2 L 141.875,-86.2008 L 141.025,-85.5832 z
M 119.975,-85.5832 L 119.125,-86.2008 L 118.8,-87.2 L 119.125,-88.1992 L 119.975,-88.8168 L 121.025,-88.8168
 L 121.875,-88.1992 L 122.2,-87.2 L 121.875,-86.2008 L 121.025,-85.5832 z
M 99.9747,-85.5832 L 99.1247,-86.2008 L 98.8,-87.2 L 99.1247,-88.1992 L 99.9747,-88.8168 L 101.025,-88.8168
 L 101.875,-88.1992 L 102.2,-87.2 L 101.875,-86.2008 L 101.025,-85.5832 z
M 59.9747,-85.5832 L 59.1247,-86.2008 L 58.8,-87.2 L 59.1247,-88.1992 L 59.9747,-88.8168 L 61.0253,-88.8168
 L 61.8753,-88.1992 L 62.2,-87.2 L 61.8753,-86.2008 L 61.0253,-85.5832 z
M 39.9747,-85.5832 L 39.1247,-86.2008 L 38.8,-87.2 L 39.1247,-88.1992 L 39.9747,-88.8168 L 41.0253,-88.8168
 L 41.8753,-88.1992 L 42.2,-87.2 L 41.8753,-86.2008 L 41.0253,-85.5832 z
M 19.9747,-85.5832 L 19.1247,-86.2008 L 18.8,-87.2 L 19.1247,-88.1992 L 19.9747,-88.8168 L 21.0253,-88.8168
 L 21.8753,-88.1992 L 22.2,-87.2 L 21.8753,-86.2008 L 21.0253,-85.5832 z
M 79.9747,-85.5832 L 79.1247,-86.2008 L 78.8,-87.2 L 79.1247,-88.1992 L 79.9747,-88.8168 L 81.0253,-88.8168
 L 81.8753,-88.1992 L 82.2,-87.2 L 81.8753,-86.2008 L 81.0253,-85.5832 z
M 19.9747,-65.5832 L 19.1247,-66.2008 L 18.8,-67.2 L 19.1247,-68.1992 L 19.9747,-68.8168 L 21.0253,-68.8168
 L 21.8753,-68.1992 L 22.2,-67.2 L 21.8753,-66.2008 L 21.0253,-65.5832 z
M 39.9747,-65.5832 L 39.1247,-66.2008 L 38.8,-67.2 L 39.1247,-68.1992 L 39.9747,-68.8168 L 41.0253,-68.8168
 L 41.8753,-68.1992 L 42.2,-67.2 L 41.8753,-66.2008 L 41.0253,-65.5832 z
M 59.9747,-65.5832 L 59.1247,-66.2008 L 58.8,-67.2 L 59.1247,-68.1992 L 59.9747,-68.8168 L 61.0253,-68.8168
 L 61.8753,-68.1992 L 62.2,-67.2 L 61.8753,-66.2008 L 61.0253,-65.5832 z
M 79.9747,-65.5832 L 79.1247,-66.2008 L 78.8,-67.2 L 79.1247,-68.1992 L 79.9747,-68.8168 L 81.0253,-68.8168
 L 81.8753,-68.1992 L 82.2,-67.2 L 81.8753,-66.2008 L 81.0253,-65.5832 z
M 99.9747,-65.5832 L 99.1247,-66.2008 L 98.8,-67.2 L 99.1247,-68.1992 L 99.9747,-68.8168 L 101.025,-68.8168
 L 101.875,-68.1992 L 102.2,-67.2 L 101.875,-66.2008 L 101.025,-65.5832 z
M 119.975,-65.5832 L 119.125,-66.2008 L 118.8,-67.2 L 119.125,-68.1992 L 119.975,-68.8168 L 121.025,-68.8168
 L 121.875,-68.1992 L 122.2,-67.2 L 121.875,-66.2008 L 121.025,-65.5832 z
M 139.975,-65.5832 L 139.125,-66.2008 L 138.8,-67.2 L 139.125,-68.1992 L 139.975,-68.8168 L 141.025,-68.8168
 L 141.875,-68.1992 L 142.2,-67.2 L 141.875,-66.2008 L 141.025,-65.5832 z
M 159.975,-65.5832 L 159.125,-66.2008 L 158.8,-67.2 L 159.125,-68.1992 L 159.975,-68.8168 L 161.025,-68.8168
 L 161.875,-68.1992 L 162.2,-67.2 L 161.875,-66.2008 L 161.025,-65.5832 z
M 139.975,-45.5832 L 139.125,-46.2008 L 138.8,-47.2 L 139.125,-48.1992 L 139.975,-48.8168 L 141.025,-48.8168
 L 141.875,-48.1992 L 142.2,-47.2 L 141.875,-46.2008 L 141.025,-45.5832 z
M 159.975,-45.5832 L 159.125,-46.2008 L 158.8,-47.2 L 159.125,-48.1992 L 159.975,-48.8168 L 161.025,-48.8168
 L 161.875,-48.1992 L 162.2,-47.2 L 161.875,-46.2008 L 161.025,-45.5832 z
M 119.975,-45.5832 L 119.125,-46.2008 L 118.8,-47.2 L 119.125,-48.1992 L 119.975,-48.8168 L 121.025,-48.8168
 L 121.875,-48.1992 L 122.2,-47.2 L 121.875,-46.2008 L 121.025,-45.5832 z
M 99.9747,-45.5832 L 99.1247,-46.2008 L 98.8,-47.2 L 99.1247,-48.1992 L 99.9747,-48.8168 L 101.025,-48.8168
 L 101.875,-48.1992 L 102.2,-47.2 L 101.875,-46.2008 L 101.025,-45.5832 z
M 59.9747,-45.5832 L 59.1247,-46.2008 L 58.8,-47.2 L 59.1247,-48.1992 L 59.9747,-48.8168 L 61.0253,-48.8168
 L 61.8753,-48.1992 L 62.2,-47.2 L 61.8753,-46.2008 L 61.0253,-45.5832 z
M 39.9747,-45.5832 L 39.1247,-46.2008 L 38.8,-47.2 L 39.1247,-48.1992 L 39.9747,-48.8168 L 41.0253,-48.8168
 L 41.8753,-48.1992 L 42.2,-47.2 L 41.8753,-46.2008 L 41.0253,-45.5832 z
M 19.9747,-45.5832 L 19.1247,-46.2008 L 18.8,-47.2 L 19.1247,-48.1992 L 19.9747,-48.8168 L 21.0253,-48.8168
 L 21.8753,-48.1992 L 22.2,-47.2 L 21.8753,-46.2008 L 21.0253,-45.5832 z
M 79.9747,-45.5832 L 79.1247,-46.2008 L 78.8,-47.2 L 79.1247,-48.1992 L 79.9747,-48.8168 L 81.0253,-48.8168
 L 81.8753,-48.1992 L 82.2,-47.2 L 81.8753,-46.2008 L 81.0253,-45.5832 z
M 139.975,-25.5832 L 139.125,-26.2008 L 138.8,-27.2 L 139.125,-28.1992 L 139.975,-28.8168 L 141.025,-28.8168
 L 141.875,-28.1992 L 142.2,-27.2 L 141.875,-26.2008 L 141.025,-25.5832 z
M 159.975,-25.5832 L 159.125,-26.2008 L 158.8,-27.2 L 159.125,-28.1992 L 159.975,-28.8168 L 161.025,-28.8168
 L 161.875,-28.1992 L 162.2,-27.2 L 161.875,-26.2008 L 161.025,-25.5832 z
M 119.975,-25.5832 L 119.125,-26.2008 L 118.8,-27.2 L 119.125,-28.1992 L 119.975,-28.8168 L 121.025,-28.8168
 L 121.875,-28.1992 L 122.2,-27.2 L 121.875,-26.2008 L 121.025,-25.5832 z
M 99.9747,-25.5832 L 99.1247,-26.2008 L 98.8,-27.2 L 99.1247,-28.1992 L 99.9747,-28.8168 L 101.025,-28.8168
 L 101.875,-28.1992 L 102.2,-27.2 L 101.875,-26.2008 L 101.025,-25.5832 z
M 79.9747,-25.5832 L 79.1247,-26.2008 L 78.8,-27.2 L 79.1247,-28.1992 L 79.9747,-28.8168 L 81.0253,-28.8168
 L 81.8753,-28.1992 L 82.2,-27.2 L 81.8753,-26.2008 L 81.0253,-25.5832 z
M 59.9747,-25.5832 L 59.1247,-26.2008 L 58.8,-27.2 L 59.1247,-28.1992 L 59.9747,-28.8168 L 61.0253,-28.8168
 L 61.8753,-28.1992 L 62.2,-27.2 L 61.8753,-26.2008 L 61.0253,-25.5832 z
M 39.9747,-25.5832 L 39.1247,-26.2008 L 38.8,-27.2 L 39.1247,-28.1992 L 39.9747,-28.8168 L 41.0253,-28.8168
 L 41.8753,-28.1992 L 42.2,-27.2 L 41.8753,-26.2008 L 41.0253,-25.5832 z
M 19.9747,-25.5832 L 19.1247,-26.2008 L 18.8,-27.2 L 19.1247,-28.1992 L 19.9747,-28.8168 L 21.0253,-28.8168
 L 21.8753,-28.1992 L 22.2,-27.2 L 21.8753,-26.2008 L 21.0253,-25.5832 z
M 19.9747,-5.58319 L 19.1247,-6.20076 L 18.8,-7.2 L 19.1247,-8.19923 L 19.9747,-8.81679 L 21.0253,-8.81679
 L 21.8753,-8.19923 L 22.2,-7.2 L 21.8753,-6.20076 L 21.0253,-5.58319 z
M 39.9747,-5.58319 L 39.1247,-6.20076 L 38.8,-7.2 L 39.1247,-8.19923 L 39.9747,-8.81679 L 41.0253,-8.81679
 L 41.8753,-8.19923 L 42.2,-7.2 L 41.8753,-6.20076 L 41.0253,-5.58319 z
M 59.9747,-5.58319 L 59.1247,-6.20076 L 58.8,-7.2 L 59.1247,-8.19923 L 59.9747,-8.81679 L 61.0253,-8.81679
 L 61.8753,-8.19923 L 62.2,-7.2 L 61.8753,-6.20076 L 61.0253,-5.58319 z
M 79.9747,-5.58319 L 79.1247,-6.20076 L 78.8,-7.2 L 79.1247,-8.19923 L 79.9747,-8.81679 L 81.0253,-8.81679
 L 81.8753,-8.19923 L 82.2,-7.2 L 81.8753,-6.20076 L 81.0253,-5.58319 z
M 99.9747,-5.58319 L 99.1247,-6.20076 L 98.8,-7.2 L 99.1247,-8.19923 L 99.9747,-8.81679 L 101.025,-8.81679
 L 101.875,-8.19923 L 102.2,-7.2 L 101.875,-6.20076 L 101.025,-5.58319 z
M 119.975,-5.58319 L 119.125,-6.20076 L 118.8,-7.2 L 119.125,-8.19923 L 119.975,-8.81679 L 121.025,-8.81679
 L 121.875,-8.19923 L 122.2,-7.2 L 121.875,-6.20076 L 121.025,-5.58319 z
M 139.975,-5.58319 L 139.125,-6.20076 L 138.8,-7.2 L 139.125,-8.19923 L 139.975,-8.81679 L 141.025,-8.81679
 L 141.875,-8.19923 L 142.2,-7.2 L 141.875,-6.20076 L 141.025,-5.58319 z
M 159.975,-5.58319 L 159.125,-6.20076 L 158.8,-7.2 L 159.125,-8.19923 L 159.975,-8.81679 L 161.025,-8.81679
 L 161.875,-8.19923 L 162.2,-7.2 L 161.875,-6.20076 L 161.025,-5.58319 z
" stroke="black" fill="lightgray" stroke-width="0.5"/>
</svg>
